<svg width="25" height="24" viewBox="0 0 25 24" fill="none" xmlns="http://www.w3.org/2000/svg">
<path d="M1.625 1.5H3.24163C3.83626 1.5 4.35661 1.89976 4.50982 2.47431L4.95688 4.15077M7.75 14.625C5.817 14.625 4.25 16.192 4.25 18.125H22.625M7.75 14.625H20.838C22.1459 11.9409 23.2873 9.16074 24.2487 6.29792C18.6934 4.8792 12.8723 4.125 6.875 4.125C6.23357 4.125 5.59417 4.13363 4.95688 4.15077M7.75 14.625L4.95688 4.15077M6 21.625C6 22.1082 5.60825 22.5 5.125 22.5C4.64175 22.5 4.25 22.1082 4.25 21.625C4.25 21.1418 4.64175 20.75 5.125 20.75C5.60825 20.75 6 21.1418 6 21.625ZM20.875 21.625C20.875 22.1082 20.4832 22.5 20 22.5C19.5168 22.5 19.125 22.1082 19.125 21.625C19.125 21.1418 19.5168 20.75 20 20.75C20.4832 20.75 20.875 21.1418 20.875 21.625Z" stroke="black" stroke-opacity="0.7" stroke-width="1.5" stroke-linecap="round" stroke-linejoin="round"/>
</svg>
