<svg width="50" height="50" viewBox="0 0 50 50" fill="none" xmlns="http://www.w3.org/2000/svg">
<path d="M8.36875 37.1688C8.69312 37.4944 8.94167 37.8875 9.09669 38.3202C9.25172 38.7528 9.3094 39.2144 9.26562 39.6719C9.046 41.7893 8.62961 43.8817 8.02187 45.9219C12.3812 44.9125 15.0438 43.7438 16.2531 43.1312C16.9391 42.7838 17.729 42.7015 18.4719 42.9C20.6014 43.4677 22.7961 43.7535 25 43.75C37.4875 43.75 46.875 34.9781 46.875 25C46.875 15.025 37.4875 6.25 25 6.25C12.5125 6.25 3.125 15.025 3.125 25C3.125 29.5875 5.05312 33.8438 8.36875 37.1688ZM6.82812 49.3719C6.08771 49.5187 5.3449 49.653 4.6 49.775C3.975 49.875 3.5 49.225 3.74688 48.6437C4.02435 47.9894 4.27867 47.3254 4.50938 46.6531L4.51875 46.6219C5.29375 44.3719 5.925 41.7844 6.15625 39.375C2.32188 35.5312 0 30.5 0 25C0 12.9187 11.1937 3.125 25 3.125C38.8063 3.125 50 12.9187 50 25C50 37.0812 38.8063 46.875 25 46.875C22.5239 46.8783 20.0581 46.5568 17.6656 45.9188C16.0406 46.7406 12.5437 48.2375 6.82812 49.3719Z" fill="#D6742B"/>
<path d="M22.0813 21.1249C21.4726 20.1769 20.5726 19.4521 19.5167 19.0594C18.4607 18.6668 17.3059 18.6274 16.2256 18.9473C15.1454 19.2672 14.1982 19.9291 13.5264 20.8335C12.8546 21.7378 12.4944 22.8358 12.5001 23.9624C12.5006 24.8953 12.7517 25.811 13.2271 26.6137C13.7024 27.4164 14.3847 28.0767 15.2024 28.5257C16.0202 28.9747 16.9436 29.1958 17.876 29.166C18.8085 29.1361 19.7158 28.8565 20.5032 28.3561C20.0938 29.5718 19.3313 30.8686 18.0751 32.1686C17.8347 32.4173 17.703 32.7512 17.7088 33.097C17.7117 33.2682 17.7483 33.4371 17.8165 33.5942C17.8847 33.7513 17.9832 33.8934 18.1063 34.0124C18.2294 34.1314 18.3748 34.225 18.5341 34.2878C18.6934 34.3507 18.8635 34.3815 19.0347 34.3786C19.3804 34.3728 19.7097 34.2298 19.9501 33.9811C24.5938 29.1686 23.9907 23.9374 22.0813 21.1311V21.1249ZM34.5813 21.1249C33.9726 20.1769 33.0726 19.4521 32.0167 19.0594C30.9607 18.6668 29.8059 18.6274 28.7256 18.9473C27.6454 19.2672 26.6982 19.9291 26.0264 20.8335C25.3546 21.7378 24.9944 22.8358 25.0001 23.9624C25.0006 24.8953 25.2517 25.811 25.7271 26.6137C26.2024 27.4164 26.8847 28.0767 27.7024 28.5257C28.5202 28.9747 29.4436 29.1958 30.376 29.166C31.3085 29.1361 32.2158 28.8565 33.0032 28.3561C32.5938 29.5718 31.8313 30.8686 30.5751 32.1686C30.4561 32.2917 30.3625 32.4371 30.2996 32.5964C30.2368 32.7557 30.2059 32.9258 30.2088 33.097C30.2117 33.2682 30.2483 33.4371 30.3165 33.5942C30.3847 33.7513 30.4832 33.8934 30.6063 34.0124C30.7294 34.1314 30.8748 34.225 31.0341 34.2878C31.1933 34.3507 31.3635 34.3815 31.5347 34.3786C31.7059 34.3757 31.8748 34.3391 32.0319 34.2709C32.189 34.2027 32.3311 34.1042 32.4501 33.9811C37.0938 29.1686 36.4907 23.9374 34.5813 21.1311V21.1249Z" fill="#D6742B"/>
</svg>
