<svg width="100" height="100" viewBox="0 0 100 100" fill="none" xmlns="http://www.w3.org/2000/svg">
<path d="M92.5903 28.4748C91.9743 23.7995 89.5059 18.7954 85.354 14.6445C81.2044 10.4948 76.2014 8.0266 71.5272 7.41062C69.4122 7.13124 66.5882 5.9632 64.8955 4.66395C61.153 1.79408 55.8697 0 49.9999 0C44.1301 0 38.8468 1.79408 35.1043 4.66395C33.4116 5.96208 30.5874 7.13124 28.4726 7.41062C23.7982 8.0266 18.7954 10.495 14.6457 14.6445C10.4937 18.7954 8.0253 23.7993 7.4095 28.4748C7.13124 30.5896 5.96208 33.4127 4.66395 35.1043C1.79315 38.8455 0 44.1301 0 49.9999C0 55.8697 1.79315 61.1541 4.66395 64.8955C5.9632 66.5882 7.13124 69.4102 7.4095 71.5246C8.02548 76.2001 10.4937 81.2044 14.6457 85.3549C18.7954 89.5048 23.7982 91.9732 28.4726 92.589C30.5874 92.8682 33.4116 94.0374 35.1043 95.3355C38.8455 98.2054 44.129 99.9996 49.9999 99.9996C55.8708 99.9996 61.153 98.2054 64.8955 95.3355C66.5882 94.0374 69.4122 92.8682 71.5272 92.589C76.2013 91.973 81.2044 89.5046 85.354 85.3549C89.5059 81.2042 91.9743 76.2001 92.5903 71.5246C92.8684 69.41 94.0377 66.5871 95.3357 64.8955C98.2067 61.1541 99.9998 55.8707 99.9998 49.9999C99.9998 44.1301 98.2067 38.8455 95.3357 35.1043C94.0366 33.4127 92.8684 30.5896 92.5903 28.4748ZM81.8681 33.6284L45.9381 69.5583L40.1893 75.3074C38.6015 76.8953 36.0282 76.8953 34.4404 75.3074L28.6916 69.5583L18.1304 58.9985C16.5426 57.4105 16.5426 54.8374 18.1304 53.2494L23.8793 47.5007C25.467 45.913 28.0404 45.913 29.6281 47.5007L37.3138 55.1863L70.3695 22.1306C71.9574 20.5429 74.5306 20.5429 76.1185 22.1306L81.8672 27.8795C83.4559 29.4673 83.4559 32.0417 81.8681 33.6284Z" fill="#D6742B"/>
</svg>
