<svg width="50" height="50" viewBox="0 0 50 50" fill="none" xmlns="http://www.w3.org/2000/svg">
<path d="M49.357 35.9617H47.7949V27.2254C47.7949 26.2031 47.4864 25.2003 46.9142 24.3517L42.9992 18.5531C42.0413 17.1388 40.4471 16.2902 38.737 16.2902H32.6684C31.9549 16.2902 31.3827 16.8688 31.3827 17.576V35.9619H21.444C22.389 36.7782 23.0383 37.9161 23.2247 39.2019H33.7034C34.0762 36.6498 36.2749 34.6761 38.9298 34.6761C41.5849 34.6761 43.7771 36.6498 44.15 39.2019H49.3571C49.7107 39.2019 50 38.9126 50 38.559V36.6047C49.9999 36.2512 49.7107 35.9617 49.357 35.9617ZM42.9542 25.5088H34.9441C34.5905 25.5088 34.3013 25.2259 34.3013 24.866V20.4238C34.3013 20.0702 34.5905 19.7809 34.9441 19.7809H39.8235C40.0356 19.7809 40.2284 19.8838 40.3506 20.0509L43.4813 24.4995C43.777 24.9239 43.4748 25.5088 42.9542 25.5088ZM38.9298 35.9617C36.7184 35.9617 34.9312 37.7553 34.9312 39.9667C34.9312 42.1718 36.7184 43.9653 38.9298 43.9653C41.1348 43.9653 42.9284 42.1718 42.9284 39.9667C42.9284 37.7554 41.1348 35.9617 38.9298 35.9617ZM38.9298 41.9662C37.824 41.9662 36.9305 41.0662 36.9305 39.9669C36.9305 38.8611 37.824 37.9675 38.9298 37.9675C40.0355 37.9675 40.9292 38.8611 40.9292 39.9669C40.9292 41.0662 40.0356 41.9662 38.9298 41.9662ZM5.591 35.9617C5.23741 35.9617 4.94811 36.2512 4.94811 36.6046V38.559C4.94811 38.9126 5.23741 39.2019 5.591 39.2019H12.7782C12.9646 37.9161 13.6139 36.7782 14.5525 35.9619H5.591V35.9617ZM17.9982 35.9617C15.7932 35.9617 13.9996 37.7553 13.9996 39.9667C13.9996 42.1718 15.7932 43.9653 17.9982 43.9653C20.2096 43.9653 21.9968 42.1718 21.9968 39.9667C21.9969 37.7554 20.2097 35.9617 17.9982 35.9617ZM17.9982 41.9662C16.8925 41.9662 15.9989 41.0662 15.9989 39.9669C15.9989 38.8611 16.8925 37.9675 17.9982 37.9675C19.1039 37.9675 19.9975 38.8611 19.9975 39.9669C19.9975 41.0662 19.1039 41.9662 17.9982 41.9662ZM27.6155 12.3044H20.1647C20.5311 13.3909 20.724 14.5544 20.724 15.7566C20.724 21.8253 15.7868 26.7624 9.7182 26.7624C8.6124 26.7624 7.53888 26.5954 6.52956 26.2932V33.3968C6.52956 33.7504 6.81886 34.0397 7.17246 34.0397H28.9012C29.2549 34.0397 29.5441 33.7504 29.5441 33.3968V14.233C29.544 13.1659 28.6826 12.3044 27.6155 12.3044ZM9.71967 6.03491C4.35163 6.03491 0 10.3865 0 15.7545C0 21.1226 4.35163 25.4742 9.71967 25.4742C15.0877 25.4742 19.4394 21.1226 19.4394 15.7545C19.4394 10.3865 15.0877 6.03491 9.71967 6.03491ZM9.71967 23.2624C5.57328 23.2624 2.21184 19.901 2.21184 15.7545C2.21184 11.608 5.57328 8.24668 9.71967 8.24668C13.8662 8.24668 17.2275 11.6081 17.2275 15.7545C17.2275 19.901 13.8662 23.2624 9.71967 23.2624ZM12.5871 17.3401C12.5042 17.3401 12.4194 17.3294 12.3353 17.3069L9.20268 16.4625C8.78209 16.3489 8.48953 15.9673 8.48953 15.5315V10.71C8.48953 10.1776 8.92147 9.7457 9.45382 9.7457C9.98618 9.7457 10.4181 10.1776 10.4181 10.71V14.7926L12.8376 15.4448C13.3518 15.5835 13.6562 16.1129 13.5175 16.6269C13.4014 17.057 13.0122 17.3401 12.5871 17.3401Z" fill="#D6742B"/>
</svg>
