<svg width="100" height="100" viewBox="0 0 100 100" fill="none" xmlns="http://www.w3.org/2000/svg">
<path d="M86.4844 84.2186C86.0938 82.4999 86.4062 80.5467 87.4219 78.9061L95.625 65.8592C97.5781 62.7342 98.0469 58.7499 97.1875 55.3124L90.7813 27.1092C90.3125 24.8436 88.0469 23.3592 85.7031 23.9061C83.4375 24.3749 82.0313 26.6405 82.5781 28.9842L86.5625 46.328C87.4219 46.4842 88.2812 46.7967 88.9844 47.3436C90.5469 48.3592 91.7188 49.9217 92.1094 51.7186C92.5 53.5155 92.1875 55.4686 91.1719 57.0311L81.7188 72.0311C81.3281 72.6561 80.4688 72.9686 79.7656 72.4217C79.1406 72.0311 78.8281 71.1717 79.375 70.5467L88.9062 55.4686C90.1562 53.5155 89.5312 50.9374 87.5781 49.6874C85.625 48.4374 83.0469 49.0624 81.7969 51.0155L69.9219 69.8436C67.9688 72.8905 66.4844 76.4842 68.2031 79.9217L80 98.9842L99.2188 98.9061L86.4844 84.2186ZM18.4375 51.0155C17.1875 49.0624 14.6094 48.4374 12.6563 49.6874C10.7031 50.9374 10.0781 53.5155 11.3281 55.4686L20.8594 70.5467C21.25 71.0936 21.0938 72.0311 20.4688 72.4217C19.8438 72.8124 18.9844 72.6561 18.5156 72.0311L8.98438 57.0311C7.89063 55.4686 7.65625 53.5155 8.04688 51.7186C8.4375 49.9217 9.60938 48.2811 11.1719 47.3436C11.9531 46.8749 12.7344 46.4842 13.5938 46.328L17.5781 28.9842C18.0469 26.6405 16.6406 24.453 14.4531 23.9061C12.1094 23.4374 9.92188 24.9217 9.375 27.1092L2.89063 55.3124C2.03125 58.5936 2.5 62.578 4.45313 65.8592L12.6563 78.9061C13.6719 80.5467 13.9844 82.4999 13.5938 84.2186L0.859375 98.7499L20.0781 98.828L31.875 79.7655C33.5938 76.328 32.1094 72.8905 30.1562 69.6874L18.4375 51.0155ZM75.0781 38.9061C74.2188 24.9999 62.1875 14.453 48.3594 15.3905C34.4531 16.2499 23.9063 28.2811 24.7656 42.1092C25.625 56.0155 37.6562 66.5624 51.4844 65.703C65.3906 64.8436 75.8594 52.8905 75.0781 38.9061ZM48.5938 62.7342C43.5938 62.4999 38.9844 60.4686 35.1562 57.1874C30.7031 53.2811 28.0469 47.8124 27.6563 41.953C27.3438 36.6405 28.6719 31.7186 31.7969 27.4999C31.9531 28.5936 32.4219 29.3749 32.4219 30.2342C32.4219 33.203 32.2656 35.078 34.0625 37.4217C34.8438 38.3592 35.0781 39.7655 35.4688 40.8592C35.8594 41.953 37.1875 42.4217 38.125 43.1249C40 44.3749 41.7969 45.8592 43.75 46.953C45.0781 47.7342 45.8594 48.0467 45.5469 49.6092C45.3125 50.8592 45.3125 51.5624 44.6875 52.7342C44.5312 53.0467 45.625 55.1561 45.9375 55.4686C46.9531 56.4061 47.8906 57.1092 48.9844 57.9686C50.8594 58.9842 49.1406 60.8592 48.5938 62.7342ZM55.3906 62.1092C55.8594 60.5467 56.875 59.1405 57.8906 58.2811C58.75 57.4999 59.7656 56.0936 60.1562 55.1561C60.5469 54.0624 61.0938 53.203 61.6406 52.1874C62.5 50.7811 59.2188 48.9842 58.2031 48.5155C55.8594 47.6561 54.1406 46.5624 52.0312 45.2342C50.5469 44.2967 46.0938 46.4061 44.4531 45.703C42.1875 44.8436 41.4844 44.1405 39.4531 42.8124C37.3438 41.4842 37.9688 38.5936 37.8125 36.4061C39.2969 36.4061 41.4844 35.7811 42.6562 36.8749C42.9688 37.1874 44.2188 38.9842 44.9219 38.2811C45.4688 37.7342 44.375 35.7811 44.0625 35.3124C43.2813 33.9061 45.3906 33.1249 46.3281 32.1874C47.5781 30.7811 50.3906 28.5936 50.1562 27.7342C49.9219 26.7967 47.0312 24.2967 45.3906 24.9217C45.1562 24.9999 43.2813 26.8749 42.8906 27.3436C42.8906 26.5624 42.7344 26.2499 42.7344 25.6249C42.7344 25.2342 41.7969 24.7655 41.7969 24.453C41.875 23.6717 43.75 22.1874 44.2969 21.6405C43.9844 21.4842 42.6562 20.4686 42.3438 20.6249C41.4844 21.0155 40.5469 21.4061 39.6094 21.7967C39.6094 21.4842 39.5312 21.2499 39.4531 20.8592C41.1719 19.9217 43.0469 19.2967 45 18.9061L46.7969 19.453L48.125 20.8592L49.4531 22.0311C49.4531 22.0311 50.2344 22.3436 50.5469 22.2655C50.8594 22.1874 52.1094 20.5467 52.1094 20.5467L51.6406 19.3749L51.5625 18.203C55 18.4374 58.2813 19.5311 61.1719 21.328C60.7031 21.4061 60.0781 21.4842 59.5312 21.6405C59.2969 21.4842 57.9688 21.7967 58.0469 22.2655C58.125 22.7342 60.5469 24.6874 61.5625 26.328C62.5781 28.1249 65.5469 29.2186 65.9375 31.1717C66.4844 33.4374 65.625 36.328 66.0156 38.9842C66.4062 41.5624 69.2188 44.3749 69.2188 44.3749C69.2188 44.3749 70.4688 44.6874 71.5625 44.5311C70.7812 48.4374 69.0625 52.1092 66.3281 55.1561C63.5156 58.5936 59.6875 61.0155 55.3906 62.1092Z" fill="#D6742B"/>
</svg>
