<svg width="114" height="110" viewBox="0 0 114 110" fill="none" xmlns="http://www.w3.org/2000/svg">
<rect x="0.5" y="0.5" width="113" height="109" rx="9.5" fill="white" stroke="#21A0AA"/>
<path d="M46.042 77.4167C44.7816 77.4167 43.7026 76.9679 42.805 76.0704C41.9074 75.1728 41.4587 74.0938 41.4587 72.8334C41.4587 71.573 41.9074 70.494 42.805 69.5964C43.7026 68.6988 44.7816 68.25 46.042 68.25C47.3024 68.25 48.3814 68.6988 49.279 69.5964C50.1765 70.494 50.6253 71.573 50.6253 72.8334C50.6253 74.0938 50.1765 75.1728 49.279 76.0704C48.3814 76.9679 47.3024 77.4167 46.042 77.4167ZM68.9587 77.4167C67.6982 77.4167 66.6192 76.9679 65.7217 76.0704C64.8241 75.1728 64.3753 74.0938 64.3753 72.8334C64.3753 71.573 64.8241 70.494 65.7217 69.5964C66.6192 68.6988 67.6982 68.25 68.9587 68.25C70.2191 68.25 71.2981 68.6988 72.1956 69.5964C73.0932 70.494 73.542 71.573 73.542 72.8334C73.542 74.0938 73.0932 75.1728 72.1956 76.0704C71.2981 76.9679 70.2191 77.4167 68.9587 77.4167ZM44.0941 40.75L49.5941 52.2084H65.6357L71.9378 40.75H44.0941ZM41.917 36.1667H75.7191C76.5975 36.1667 77.2659 36.5582 77.7243 37.3412C78.1826 38.1242 78.2017 38.9167 77.7816 39.7188L69.6462 54.3855C69.226 55.1493 68.6627 55.7414 67.9561 56.1615C67.2495 56.5816 66.476 56.7917 65.6357 56.7917H48.5628L46.042 61.375H73.542V65.9584H46.042C44.3232 65.9584 43.0246 65.204 42.1462 63.6954C41.2677 62.1867 41.2295 60.6875 42.0316 59.198L45.1253 53.5834L36.8753 36.1667H32.292V31.5834H39.7399L41.917 36.1667Z" fill="#FF7D55"/>
</svg>
