<svg width="114" height="110" viewBox="0 0 114 110" fill="none" xmlns="http://www.w3.org/2000/svg">
<rect x="0.5" y="0.5" width="113" height="109" rx="9.5" fill="white" stroke="#21A0AA"/>
<path d="M54.4372 70.5417H58.4476V67.6771C60.3573 67.3334 61.9997 66.5886 63.3747 65.4427C64.7497 64.2969 65.4372 62.5973 65.4372 60.3438C65.4372 58.7396 64.9788 57.2691 64.0622 55.9323C63.1455 54.5955 61.3122 53.4306 58.5622 52.4375C56.2705 51.6737 54.6854 51.0052 53.807 50.4323C52.9285 49.8594 52.4893 49.0764 52.4893 48.0834C52.4893 47.0903 52.8426 46.3073 53.5492 45.7344C54.2558 45.1615 55.2775 44.875 56.6143 44.875C57.8365 44.875 58.7913 45.171 59.4788 45.7631C60.1663 46.3551 60.6629 47.0903 60.9684 47.9688L64.6351 46.4792C64.215 45.1424 63.4415 43.9775 62.3148 42.9844C61.188 41.9914 59.9372 41.4375 58.5622 41.323V38.4584H54.5518V41.323C52.642 41.7431 51.1525 42.5834 50.083 43.8438C49.0136 45.1042 48.4788 46.5174 48.4788 48.0834C48.4788 49.8785 49.004 51.3299 50.0544 52.4375C51.1047 53.5452 52.7566 54.5 55.0101 55.3021C57.4163 56.1806 59.0873 56.9636 60.0231 57.6511C60.9589 58.3386 61.4268 59.2362 61.4268 60.3438C61.4268 61.6042 60.978 62.5304 60.0804 63.1224C59.1828 63.7145 58.1038 64.0105 56.8434 64.0105C55.583 64.0105 54.4658 63.619 53.4919 62.836C52.5179 62.053 51.8018 60.8785 51.3434 59.3125L47.5622 60.8021C48.0969 62.6355 48.9276 64.1155 50.0544 65.2422C51.1811 66.369 52.642 67.1424 54.4372 67.5625V70.5417ZM56.4997 77.4167C53.3295 77.4167 50.3504 76.8151 47.5622 75.612C44.774 74.4089 42.3486 72.7761 40.2861 70.7136C38.2236 68.6511 36.5908 66.2257 35.3877 63.4375C34.1846 60.6493 33.583 57.6702 33.583 54.5C33.583 51.3299 34.1846 48.3507 35.3877 45.5625C36.5908 42.7743 38.2236 40.349 40.2861 38.2865C42.3486 36.224 44.774 34.5912 47.5622 33.3881C50.3504 32.1849 53.3295 31.5834 56.4997 31.5834C59.6698 31.5834 62.649 32.1849 65.4372 33.3881C68.2254 34.5912 70.6507 36.224 72.7132 38.2865C74.7757 40.349 76.4085 42.7743 77.6117 45.5625C78.8148 48.3507 79.4163 51.3299 79.4163 54.5C79.4163 57.6702 78.8148 60.6493 77.6117 63.4375C76.4085 66.2257 74.7757 68.6511 72.7132 70.7136C70.6507 72.7761 68.2254 74.4089 65.4372 75.612C62.649 76.8151 59.6698 77.4167 56.4997 77.4167ZM56.4997 72.8334C61.6177 72.8334 65.9528 71.0573 69.5049 67.5052C73.057 63.9532 74.833 59.6181 74.833 54.5C74.833 49.382 73.057 45.0469 69.5049 41.4948C65.9528 37.9427 61.6177 36.1667 56.4997 36.1667C51.3816 36.1667 47.0465 37.9427 43.4945 41.4948C39.9424 45.0469 38.1663 49.382 38.1663 54.5C38.1663 59.6181 39.9424 63.9532 43.4945 67.5052C47.0465 71.0573 51.3816 72.8334 56.4997 72.8334Z" fill="#FF7D55"/>
</svg>
