<svg width="154" height="54" viewBox="0 0 154 54" fill="none" xmlns="http://www.w3.org/2000/svg">
<path d="M24.0938 43H23.0625L21.4062 40.7031C21 41.0677 20.5677 41.4115 20.1094 41.7344C19.6615 42.0469 19.1875 42.3229 18.6875 42.5625C18.1875 42.7917 17.6719 42.974 17.1406 43.1094C16.6198 43.2448 16.0885 43.3125 15.5469 43.3125C14.3698 43.3125 13.2604 43.1146 12.2188 42.7188C11.1875 42.3229 10.2812 41.75 9.5 41C8.72917 40.2396 8.11979 39.3125 7.67188 38.2188C7.22396 37.125 7 35.8802 7 34.4844C7 33.1823 7.22396 31.9896 7.67188 30.9062C8.11979 29.8125 8.72917 28.875 9.5 28.0938C10.2812 27.3125 11.1875 26.7083 12.2188 26.2812C13.2604 25.8438 14.3698 25.625 15.5469 25.625C16.0885 25.625 16.625 25.6927 17.1562 25.8281C17.6875 25.9635 18.2031 26.151 18.7031 26.3906C19.2031 26.6302 19.6771 26.9115 20.125 27.2344C20.5833 27.5573 21.0104 27.9062 21.4062 28.2812L23.0625 26.2969H24.0938V43ZM19.7969 34.4844C19.7969 33.901 19.6823 33.3385 19.4531 32.7969C19.2344 32.2448 18.9323 31.7604 18.5469 31.3438C18.1615 30.9167 17.7083 30.5781 17.1875 30.3281C16.6771 30.0677 16.1302 29.9375 15.5469 29.9375C14.9635 29.9375 14.4115 30.0365 13.8906 30.2344C13.3802 30.4323 12.9323 30.724 12.5469 31.1094C12.1719 31.4948 11.875 31.974 11.6562 32.5469C11.4375 33.1094 11.3281 33.7552 11.3281 34.4844C11.3281 35.2135 11.4375 35.8646 11.6562 36.4375C11.875 37 12.1719 37.474 12.5469 37.8594C12.9323 38.2448 13.3802 38.5365 13.8906 38.7344C14.4115 38.9323 14.9635 39.0312 15.5469 39.0312C16.1302 39.0312 16.6771 38.9062 17.1875 38.6562C17.7083 38.3958 18.1615 38.0573 18.5469 37.6406C18.9323 37.2135 19.2344 36.7292 19.4531 36.1875C19.6823 35.6354 19.7969 35.0677 19.7969 34.4844Z" fill="#FF7D55"/>
<path d="M38.8438 47H32.1172V13.3906H38.8438V30.1953L51.3594 13.3906H59L48.3828 27.5703L59 47H51.3594L43.9766 33.4062L38.8438 40.2734V47ZM67.8828 47H61.4375V11.9141H67.8828V47ZM97.0391 34.2266C97.0391 36.1016 96.7031 37.8516 96.0312 39.4766C95.3594 41.0859 94.4453 42.4844 93.2891 43.6719C92.1328 44.8438 90.7734 45.7734 89.2109 46.4609C87.6641 47.1328 86 47.4688 84.2188 47.4688C82.4531 47.4688 80.7891 47.1328 79.2266 46.4609C77.6797 45.7734 76.3203 44.8438 75.1484 43.6719C73.9922 42.4844 73.0781 41.0859 72.4062 39.4766C71.7344 37.8516 71.3984 36.1016 71.3984 34.2266C71.3984 32.3203 71.7344 30.5547 72.4062 28.9297C73.0781 27.3047 73.9922 25.9062 75.1484 24.7344C76.3203 23.5469 77.6797 22.6172 79.2266 21.9453C80.7891 21.2734 82.4531 20.9375 84.2188 20.9375C86 20.9375 87.6641 21.2578 89.2109 21.8984C90.7734 22.5234 92.1328 23.4219 93.2891 24.5938C94.4453 25.75 95.3594 27.1484 96.0312 28.7891C96.7031 30.4141 97.0391 32.2266 97.0391 34.2266ZM90.5938 34.2266C90.5938 33.1953 90.4219 32.2656 90.0781 31.4375C89.75 30.5938 89.2969 29.875 88.7188 29.2812C88.1406 28.6719 87.4609 28.2109 86.6797 27.8984C85.9141 27.5703 85.0938 27.4062 84.2188 27.4062C83.3438 27.4062 82.5156 27.5703 81.7344 27.8984C80.9688 28.2109 80.2969 28.6719 79.7188 29.2812C79.1562 29.875 78.7109 30.5938 78.3828 31.4375C78.0547 32.2656 77.8906 33.1953 77.8906 34.2266C77.8906 35.1953 78.0547 36.0938 78.3828 36.9219C78.7109 37.75 79.1562 38.4688 79.7188 39.0781C80.2969 39.6875 80.9688 40.1719 81.7344 40.5312C82.5156 40.875 83.3438 41.0469 84.2188 41.0469C85.0938 41.0469 85.9141 40.8828 86.6797 40.5547C87.4609 40.2266 88.1406 39.7656 88.7188 39.1719C89.2969 38.5781 89.75 37.8594 90.0781 37.0156C90.4219 36.1719 90.5938 35.2422 90.5938 34.2266ZM114.359 47H99.7344V40.625H114.359C114.797 40.625 115.172 40.4688 115.484 40.1562C115.797 39.8438 115.953 39.4688 115.953 39.0312C115.953 38.5781 115.797 38.2812 115.484 38.1406C115.172 38 114.797 37.9297 114.359 37.9297H107.703C106.594 37.9297 105.555 37.7188 104.586 37.2969C103.617 36.875 102.773 36.3047 102.055 35.5859C101.336 34.8516 100.766 34 100.344 33.0312C99.9375 32.0625 99.7344 31.0234 99.7344 29.9141C99.7344 28.8047 99.9375 27.7656 100.344 26.7969C100.766 25.8281 101.336 24.9844 102.055 24.2656C102.773 23.5469 103.617 22.9844 104.586 22.5781C105.555 22.1562 106.594 21.9453 107.703 21.9453H120.664V28.3203H107.703C107.266 28.3203 106.891 28.4766 106.578 28.7891C106.266 29.1016 106.109 29.4766 106.109 29.9141C106.109 30.3672 106.266 30.7578 106.578 31.0859C106.891 31.3984 107.266 31.5547 107.703 31.5547H114.359C115.453 31.5547 116.484 31.7422 117.453 32.1172C118.422 32.4766 119.266 32.9844 119.984 33.6406C120.703 34.2969 121.273 35.0859 121.695 36.0078C122.117 36.9297 122.328 37.9375 122.328 39.0312C122.328 40.1406 122.117 41.1797 121.695 42.1484C121.273 43.1016 120.703 43.9453 119.984 44.6797C119.266 45.3984 118.422 45.9688 117.453 46.3906C116.484 46.7969 115.453 47 114.359 47ZM150.055 47H148.508L146.023 43.5547C145.414 44.1016 144.766 44.6172 144.078 45.1016C143.406 45.5703 142.695 45.9844 141.945 46.3438C141.195 46.6875 140.422 46.9609 139.625 47.1641C138.844 47.3672 138.047 47.4688 137.234 47.4688C135.469 47.4688 133.805 47.1719 132.242 46.5781C130.695 45.9844 129.336 45.125 128.164 44C127.008 42.8594 126.094 41.4688 125.422 39.8281C124.75 38.1875 124.414 36.3203 124.414 34.2266C124.414 32.2734 124.75 30.4844 125.422 28.8594C126.094 27.2188 127.008 25.8125 128.164 24.6406C129.336 23.4688 130.695 22.5625 132.242 21.9219C133.805 21.2656 135.469 20.9375 137.234 20.9375C138.047 20.9375 138.852 21.0391 139.648 21.2422C140.445 21.4453 141.219 21.7266 141.969 22.0859C142.719 22.4453 143.43 22.8672 144.102 23.3516C144.789 23.8359 145.43 24.3594 146.023 24.9219L148.508 21.9453H150.055V47ZM143.609 34.2266C143.609 33.3516 143.438 32.5078 143.094 31.6953C142.766 30.8672 142.312 30.1406 141.734 29.5156C141.156 28.875 140.477 28.3672 139.695 27.9922C138.93 27.6016 138.109 27.4062 137.234 27.4062C136.359 27.4062 135.531 27.5547 134.75 27.8516C133.984 28.1484 133.312 28.5859 132.734 29.1641C132.172 29.7422 131.727 30.4609 131.398 31.3203C131.07 32.1641 130.906 33.1328 130.906 34.2266C130.906 35.3203 131.07 36.2969 131.398 37.1562C131.727 38 132.172 38.7109 132.734 39.2891C133.312 39.8672 133.984 40.3047 134.75 40.6016C135.531 40.8984 136.359 41.0469 137.234 41.0469C138.109 41.0469 138.93 40.8594 139.695 40.4844C140.477 40.0938 141.156 39.5859 141.734 38.9609C142.312 38.3203 142.766 37.5938 143.094 36.7812C143.438 35.9531 143.609 35.1016 143.609 34.2266Z" fill="#FF7D55"/>
</svg>
