<svg width="551" height="449" viewBox="0 0 551 449" fill="none" xmlns="http://www.w3.org/2000/svg">
<g clip-path="url(#clip0_887_1379)">
<path d="M345.3 396.736H217.162C192.293 396.736 172.133 380.315 172.133 360.059V119.114C172.133 98.8575 192.293 82.4364 217.162 82.4364H345.3C370.169 82.4364 390.329 98.8575 390.329 119.114V360.059C390.329 380.315 370.169 396.736 345.3 396.736Z" fill="#66B0F0"/>
<path d="M343.571 380.384H218.89C205.211 380.384 194.122 371.351 194.122 360.209V118.963C194.122 107.821 205.211 98.7892 218.89 98.7892H343.571C357.25 98.7892 368.339 107.821 368.339 118.963V360.21C368.339 371.352 357.25 380.384 343.571 380.384Z" fill="white"/>
<path d="M319.156 108.994H243.306C236.798 108.994 231.521 104.697 231.521 99.3952C231.521 94.094 236.798 89.7963 243.306 89.7963H319.156C325.665 89.7963 330.941 94.0938 330.941 99.3952C330.941 104.697 325.665 108.994 319.156 108.994Z" fill="#66B0F0"/>
</g>
<g clip-path="url(#clip1_887_1379)">
<path d="M334.915 274.959C336.153 272.637 335.351 269.702 333.556 267.838C323.718 257.622 279.134 274.474 272.474 277.034C295.927 280.515 330.083 284.021 334.915 274.959Z" fill="#5B2448"/>
<path d="M343.018 201.717L306.829 184.232H259.525L222.744 202.06C221.409 202.707 220.904 204.079 221.581 205.219L232.1 222.928C232.814 224.129 234.579 224.639 236.061 224.073L246.385 220.126C246.615 238.88 238.658 261.192 231.672 272.902C229.341 276.809 245.839 281.289 264.275 280.497C302.892 278.84 327.928 258.66 334.915 269.737C329.287 258.977 323.271 251.856 319.969 220.126L329.993 223.459C331.452 223.944 333.122 223.423 333.811 222.268L344.183 204.882C344.864 203.74 344.357 202.364 343.018 201.717Z" fill="#21A0AA"/>
<path d="M259.488 184.09H306.641C305.6 193.84 296.241 201.462 285.139 202.237C272.66 203.11 260.771 195.136 259.488 184.09Z" fill="#5B2448"/>
</g>
<g clip-path="url(#clip2_887_1379)">
<path d="M228.114 396.736H99.1797L119.359 285.299H207.934L228.114 396.736Z" fill="#F94F46"/>
<path d="M228.114 396.736H102.091C120.299 396.409 217.489 389.782 207.934 285.299L228.114 396.736Z" fill="#F73E39"/>
<path d="M144.18 295.526C143.903 295.525 143.635 295.439 143.433 295.283C143.231 295.128 143.109 294.916 143.092 294.69C142.843 290.265 142.991 285.832 143.535 281.425C144.752 271.717 147.731 264.671 152.396 260.485C155.498 257.698 159.332 256.226 163.79 256.11H163.861C168.32 256.225 172.154 257.697 175.257 260.484C179.92 264.671 182.9 271.716 184.117 281.424C184.661 285.831 184.809 290.264 184.56 294.689C184.552 294.806 184.515 294.92 184.451 295.025C184.388 295.13 184.301 295.224 184.193 295.302C184.085 295.379 183.96 295.439 183.824 295.477C183.689 295.515 183.545 295.531 183.402 295.523C183.113 295.508 182.842 295.4 182.651 295.223C182.459 295.045 182.362 294.813 182.381 294.577C182.399 294.343 184.06 271.037 173.64 261.683C170.956 259.275 167.654 258 163.825 257.893C159.995 258 156.694 259.274 154.011 261.683C143.592 271.038 145.253 294.343 145.271 294.578C145.28 294.7 145.259 294.822 145.209 294.936C145.158 295.051 145.079 295.156 144.977 295.244C144.875 295.333 144.751 295.404 144.614 295.452C144.477 295.501 144.33 295.526 144.18 295.526Z" fill="#9B3C82"/>
</g>
<g clip-path="url(#clip3_887_1379)">
<path d="M411.487 136.198H150.754L181.397 107.236C184.86 103.963 189.148 101.337 193.969 99.5364C198.79 97.7362 204.03 96.8044 209.332 96.8044L352.909 96.8044C358.211 96.8044 363.451 97.7363 368.272 99.5365C373.093 101.337 377.381 103.963 380.844 107.236L411.487 136.198ZM254.922 144.756C254.814 156.476 243.128 165.95 228.727 165.95C215.223 165.95 204.105 157.619 202.684 146.917C202.78 146.207 202.831 145.486 202.837 144.756H254.922ZM411.486 144.756C411.378 156.476 399.692 165.95 385.29 165.95C371.786 165.95 360.668 157.619 359.248 146.917C359.343 146.207 359.395 145.486 359.401 144.756H411.486ZM150.754 136.198H411.487V144.756H150.754V136.198Z" fill="#F94F46"/>
<path d="M202.777 144.756L202.932 136.198L227.631 96.8044H209.901C204.42 96.8045 199.004 97.7677 194.021 99.6285C189.037 101.489 184.605 104.204 181.025 107.588L150.754 136.198V144.756H150.755C150.863 156.476 162.549 165.95 176.951 165.95C190.455 165.95 201.573 157.619 202.993 146.917C202.898 146.207 202.847 145.486 202.84 144.756H202.777ZM307.286 144.756L307.132 136.198L299.105 96.8044H263.445L255.109 136.198L254.954 144.756H254.925C255.033 156.476 266.719 165.95 281.12 165.95C295.522 165.95 307.208 156.476 307.316 144.756H307.286ZM352.339 96.8044H334.61L359.309 136.198L359.464 144.756H359.401C359.395 145.478 359.344 146.199 359.248 146.917C360.668 157.619 371.786 165.95 385.29 165.95C399.692 165.95 411.378 156.476 411.486 144.756H411.487V136.198L381.216 107.588C377.636 104.204 373.203 101.489 368.22 99.6285C363.237 97.7677 357.82 96.8044 352.339 96.8044Z" fill="#FFCF2D"/>
<path d="M359.557 146.917C358.137 157.619 347.019 165.95 333.515 165.95C319.113 165.95 307.427 156.476 307.319 144.756H359.404C359.41 145.486 359.461 146.207 359.557 146.917Z" fill="#F94F46"/>
<path d="M202.839 147.871C200.905 158.109 190.051 165.95 176.951 165.95C162.55 165.95 150.864 156.476 150.756 144.756H202.838C202.832 145.478 202.781 146.199 202.685 146.917C202.728 147.238 202.779 147.555 202.839 147.871Z" fill="#FF7D55"/>
<path d="M254.922 144.756C254.814 156.476 243.128 165.95 228.727 165.95C215.627 165.95 204.773 158.11 202.839 147.871C202.899 147.555 202.95 147.238 202.993 146.917C202.898 146.207 202.847 145.486 202.841 144.756H254.922Z" fill="#E03C38"/>
<path d="M307.316 144.756C307.208 156.476 295.522 165.95 281.121 165.95C266.72 165.95 255.034 156.476 254.926 144.756H307.316Z" fill="#FF7D55"/>
<path d="M255.109 136.198C255.058 139.051 255.006 141.903 254.955 144.756H202.777C202.828 141.903 202.881 139.051 202.932 136.198H255.109ZM359.464 144.756H307.287C307.236 141.903 307.183 139.051 307.132 136.198H359.31C359.361 139.051 359.413 141.903 359.464 144.756Z" fill="#E03C38"/>
<path d="M202.931 136.198C202.88 139.051 202.828 141.903 202.777 144.756H150.754V136.198H202.931ZM307.286 144.756H254.955C255.005 141.903 255.058 139.051 255.109 136.198H307.132C307.183 139.051 307.236 141.903 307.286 144.756ZM411.486 144.756C411.378 156.476 399.692 165.95 385.29 165.95C372.19 165.95 361.337 158.11 359.402 147.871C359.462 147.555 359.513 147.238 359.557 146.917C359.461 146.207 359.41 145.486 359.404 144.756H411.486ZM411.487 136.198V144.756H359.464C359.413 141.903 359.361 139.051 359.309 136.198H411.487Z" fill="#FF7D55"/>
<path d="M359.403 147.871C357.468 158.109 346.615 165.95 333.515 165.95C319.113 165.95 307.427 156.476 307.319 144.756H359.401C359.396 145.478 359.345 146.199 359.248 146.917C359.292 147.238 359.343 147.555 359.403 147.871Z" fill="#E03C38"/>
</g>
<g clip-path="url(#clip4_887_1379)">
<path d="M169.708 341.456H262.276V396.7H169.708V341.456Z" fill="#FFCF2D"/>
<path d="M262.276 341.654V396.7H169.708C182.623 396.341 193.772 394.866 203.353 392.601C213.464 390.21 221.853 386.938 228.786 383.217C259.207 366.876 262.276 341.654 262.276 341.654Z" fill="#FF7D55"/>
<path d="M203.354 341.456H228.786V396.7H203.354V341.456Z" fill="white"/>
<path d="M169.708 341.06H262.276V342.481H169.708V341.06Z" fill="#FFCF2D"/>
<path d="M193.043 381.545C193.33 381.545 193.573 381.348 193.573 381.114C193.573 381.024 193.529 380.916 193.462 380.844L190.328 377.554L186.95 374.013C186.773 373.815 186.442 373.779 186.199 373.941C186.155 373.959 186.133 373.995 186.111 374.013L182.733 377.554L179.598 380.844C179.422 381.042 179.466 381.312 179.687 381.455C179.775 381.509 179.885 381.545 180.018 381.545H182.225C182.512 381.545 182.755 381.743 182.755 381.977V390.462C182.755 390.696 182.998 390.893 183.285 390.893H189.731C190.018 390.893 190.261 390.696 190.261 390.462V381.977C190.261 381.743 190.504 381.545 190.791 381.545H193.043Z" fill="#5B2448"/>
</g>
<g clip-path="url(#clip5_887_1379)">
<path d="M318.738 322.921H248.792C245.157 322.921 242.22 320.529 242.22 317.57V299.177C242.22 296.217 245.157 293.826 248.792 293.826H318.738C322.373 293.826 325.311 296.217 325.311 299.177V317.57C325.311 320.529 322.373 322.921 318.738 322.921Z" fill="#66B0F0"/>
<path d="M279.961 318.275L265.929 302.618C265.781 302.446 265.824 302.205 266.035 302.084C266.12 302.033 266.204 302.016 266.31 302.016L274.615 301.998C275.122 301.998 275.608 302.188 275.904 302.532L280.405 307.59C280.616 307.831 281.018 307.883 281.313 307.711C281.356 307.693 281.398 307.659 281.419 307.625L291.224 298.11C291.584 297.766 292.091 297.576 292.64 297.576L301.135 297.594C301.452 297.594 301.685 297.8 301.685 298.041C301.685 298.144 301.642 298.247 301.558 298.333L280.975 318.31C280.743 318.533 280.341 318.568 280.067 318.378C280.024 318.344 280.003 318.31 279.961 318.275Z" fill="white"/>
</g>
<g clip-path="url(#clip6_887_1379)">
<path d="M363.502 360.23H458.962V342.15H363.502L363.502 360.23Z" fill="#FFCF2D"/>
<path d="M459.011 341.632H363.384V342.465H459.011V341.632ZM459.128 359.596H363.501V360.428H459.128V359.596Z" fill="#9B3C82"/>
<path d="M373.37 342.049H372.348V360.215H373.37V342.049ZM392.408 342.049H391.387V360.215H392.408V342.049ZM412.933 342.25H411.912V360.417H412.933V342.25ZM432.467 342.25H431.446V360.417H432.467V342.25ZM450.748 342.25H449.727V360.417H450.748V342.25Z" fill="#9B3C82"/>
<path d="M352.849 378.481H448.477V360.113H352.849V378.481Z" fill="#FFCF2D"/>
<path d="M448.36 359.596H352.733V360.428H448.36V359.596ZM448.477 377.56H352.849V378.392H448.477V377.56Z" fill="#9B3C82"/>
<path d="M362.717 360.012H361.696V378.179H362.717V360.012ZM381.756 360.012H380.735V378.179H381.756V360.012ZM402.281 360.214H401.26V378.381H402.281V360.214ZM421.815 360.214H420.793V378.381H421.815V360.214ZM440.096 360.214H439.074V378.381H440.096V360.214Z" fill="#9B3C82"/>
<path d="M371.181 396.135H466.695V378.077H371.181V396.135Z" fill="#FFCF2D"/>
<path d="M466.691 377.56H371.064V378.392H466.691V377.56ZM466.808 395.523H371.181V396.356H466.808V395.523Z" fill="#9B3C82"/>
<path d="M381.049 377.976H380.027V396.143H381.049V377.976ZM400.087 377.976H399.066V396.143H400.087V377.976ZM420.612 378.178H419.59V396.344H420.612V378.178ZM440.146 378.178H439.124V396.344H440.146V378.178ZM458.427 378.178H457.405V396.344H458.427V378.178Z" fill="#9B3C82"/>
<path d="M387.471 341.873C383.199 341.388 380.156 341.899 378.508 342.277C361.377 346.208 373.287 380.485 352.118 392.934C348.679 394.956 345.311 395.907 343.334 396.365L371.288 396.364C375.704 391.229 381.884 382.709 385.479 371.137C389.325 358.757 388.546 348.241 387.471 341.873Z" fill="#9B3C82"/>
<path d="M382.949 357.486L382.692 358.437C381.473 362.767 379.568 367.302 376.966 371.831C376.934 371.891 376.9 371.949 376.865 372.009C376.734 372.236 376.6 372.464 376.466 372.689C373.903 377.007 370.929 380.918 367.734 384.308C367.491 384.568 367.244 384.825 366.993 385.079C362.826 389.351 358.307 392.74 353.835 394.999C353.466 395.186 353.092 395.367 352.714 395.542C352.71 395.546 352.703 395.548 352.698 395.55L352.623 395.587C346.815 398.258 341.148 398.977 336.501 397.193L325.059 392.799L322.747 391.912L318.548 390.301C306.884 385.825 306.047 367.292 316.677 348.905C327.306 330.521 345.379 319.244 357.041 323.722L361.232 325.329L361.235 325.33L361.235 325.332L363.546 326.219L363.549 326.221L374.994 330.612C379.643 332.398 382.571 336.413 383.739 341.763C383.823 342.14 383.896 342.52 383.958 342.9C384.669 347.148 384.337 352.146 382.949 357.486Z" fill="#FFCF2D"/>
<path d="M367.813 338.434C368.049 342.4 367.552 346.693 366.369 351.118C366.286 351.435 366.196 351.753 366.104 352.07C364.836 356.481 362.898 361.006 360.343 365.45C360.311 365.51 360.277 365.568 360.242 365.629C360.111 365.856 359.978 366.082 359.843 366.308C357.328 370.549 354.382 374.472 351.144 377.942C350.904 378.201 350.66 378.459 350.413 378.714C346.978 382.274 343.232 385.324 339.328 387.699C338.739 388.059 338.138 388.406 337.527 388.739C337.147 388.949 336.763 389.152 336.374 389.35C332.446 391.349 328.62 392.51 325.059 392.799L322.747 391.913C323.145 391.924 323.543 391.923 323.94 391.91C335.567 391.531 350.11 380.919 359.187 365.221C368.574 348.984 369.087 332.531 361.235 325.332L363.547 326.219L363.549 326.221C365.543 328.642 366.883 331.785 367.492 335.528C367.553 335.898 367.606 336.269 367.65 336.641C367.723 337.237 367.778 337.835 367.813 338.434Z" fill="#9B3C82"/>
<path d="M377.21 371.917L359.877 365.264L359.38 366.124L376.712 372.778L377.21 371.917ZM353.835 394.999L337.527 388.739L336.662 388.407L336.164 389.269L336.373 389.35L352.623 395.587L353.835 394.999ZM367.734 384.309C367.49 384.568 367.244 384.825 366.993 385.079L350.412 378.714L350.246 378.649L350.746 377.789L351.144 377.942L367.734 384.309ZM383.739 341.763L367.492 335.528L367.282 335.447L366.784 336.309L367.649 336.641L383.958 342.9L383.739 341.763ZM382.949 357.486L366.368 351.119L366.201 351.055L365.704 351.917L366.104 352.07L382.691 358.437L382.949 357.486Z" fill="#9B3C82"/>
<path d="M362.081 340.463C362.035 347.366 359.463 355.567 354.845 363.558C350.225 371.548 344.098 378.387 337.596 382.811C333.008 385.932 328.594 387.602 324.74 387.727C323.033 387.783 321.436 387.536 319.98 386.978C315.243 385.159 312.661 380.286 312.709 373.257C312.753 366.355 315.324 358.153 319.945 350.161C324.565 342.171 330.689 335.333 337.192 330.911C343.814 326.405 350.07 324.925 354.807 326.742C359.545 328.561 362.127 333.434 362.081 340.463ZM354.31 327.604C353.025 327.111 351.607 326.892 350.083 326.942C346.497 327.058 342.328 328.655 337.941 331.641C331.565 335.977 325.55 342.699 321.001 350.568C316.451 358.436 313.922 366.494 313.876 373.262C313.832 379.899 316.177 384.465 320.478 386.115C324.782 387.768 330.596 386.334 336.849 382.078C343.223 377.743 349.238 371.02 353.787 363.153C358.336 355.284 360.868 347.225 360.912 340.459C360.958 333.82 358.611 329.254 354.31 327.604Z" fill="#9B3C82"/>
<path d="M334.634 378.048C334.725 378.136 334.852 378.194 334.991 378.212C335.131 378.229 335.274 378.205 335.393 378.144C335.513 378.082 335.601 377.988 335.641 377.877C335.681 377.767 335.672 377.649 335.613 377.544C330.822 369.02 326.48 360.407 330.491 356.916C333.182 354.575 335.974 355.73 338.929 356.952C341.617 358.063 344.397 359.213 346.742 357.172C349.715 354.585 350.948 348.575 339.94 334.633C339.767 334.41 339.404 334.348 339.133 334.49C338.862 334.632 338.783 334.927 338.958 335.148C347.229 345.623 349.691 353.214 345.889 356.522C344.228 357.967 342.363 357.304 339.458 356.103C336.549 354.9 332.929 353.403 329.639 356.266C325.133 360.186 329.595 369.123 334.551 377.94C334.573 377.979 334.601 378.015 334.634 378.048Z" fill="#9B3C82"/>
<path d="M344.911 343.06C344.973 343.121 345.053 343.168 345.143 343.197C345.234 343.226 345.331 343.237 345.428 343.228C345.524 343.218 345.617 343.189 345.696 343.144C345.775 343.098 345.839 343.037 345.882 342.966L349.911 336.335C349.945 336.279 349.965 336.219 349.97 336.156C349.976 336.094 349.966 336.031 349.941 335.972C349.916 335.913 349.878 335.858 349.827 335.811C349.777 335.764 349.715 335.725 349.646 335.698C349.578 335.67 349.503 335.654 349.426 335.65C349.35 335.645 349.273 335.653 349.2 335.673C349.128 335.693 349.061 335.725 349.003 335.766C348.945 335.807 348.898 335.857 348.864 335.913L344.836 342.544C344.785 342.626 344.766 342.719 344.779 342.811C344.792 342.903 344.838 342.989 344.911 343.06ZM325.677 377.688C325.74 377.749 325.82 377.796 325.911 377.826C326.001 377.855 326.099 377.865 326.196 377.855C326.293 377.846 326.385 377.817 326.465 377.77C326.544 377.724 326.608 377.663 326.651 377.591L330.912 370.466C330.975 370.353 330.982 370.224 330.931 370.107C330.879 369.99 330.774 369.894 330.637 369.84C330.5 369.785 330.342 369.777 330.197 369.816C330.052 369.855 329.932 369.939 329.862 370.049L325.601 377.174C325.551 377.257 325.532 377.349 325.546 377.44C325.559 377.532 325.605 377.618 325.677 377.688Z" fill="#9B3C82"/>
</g>
<rect x="27" y="48" width="137" height="42" rx="20" fill="white"/>
<rect x="27.5" y="48.5" width="136" height="41" rx="19.5" stroke="black" stroke-opacity="0.2"/>
<path d="M59.992 75.168C59.2547 75.168 58.578 75.0373 57.962 74.776C57.346 74.5053 56.8093 74.132 56.352 73.656C55.904 73.1707 55.554 72.6013 55.302 71.948C55.05 71.2947 54.924 70.576 54.924 69.792C54.924 69.008 55.05 68.2893 55.302 67.636C55.554 66.9827 55.904 66.4133 56.352 65.928C56.8093 65.4427 57.346 65.0693 57.962 64.808C58.578 64.5373 59.2547 64.402 59.992 64.402C60.7013 64.402 61.336 64.528 61.896 64.78C62.4653 65.032 62.9413 65.3587 63.324 65.76C63.716 66.152 63.996 66.5673 64.164 67.006L63.156 67.496C62.8947 66.8613 62.4933 66.362 61.952 65.998C61.4107 65.634 60.7573 65.452 59.992 65.452C59.2267 65.452 58.5453 65.634 57.948 65.998C57.3507 66.362 56.884 66.8707 56.548 67.524C56.212 68.168 56.044 68.924 56.044 69.792C56.044 70.6507 56.212 71.4067 56.548 72.06C56.884 72.7133 57.3507 73.222 57.948 73.586C58.5453 73.9407 59.2267 74.118 59.992 74.118C60.6733 74.118 61.2847 73.9687 61.826 73.67C62.3767 73.3713 62.8107 72.9653 63.128 72.452C63.4453 71.9293 63.604 71.332 63.604 70.66V70.086L64.108 70.59H59.992V69.61H64.724V70.478C64.724 71.1593 64.6027 71.7893 64.36 72.368C64.1173 72.9373 63.7813 73.432 63.352 73.852C62.9227 74.272 62.4187 74.5987 61.84 74.832C61.2707 75.056 60.6547 75.168 59.992 75.168ZM66.576 75V67.496H67.626V68.728L67.486 68.546C67.6634 68.1913 67.9294 67.9113 68.284 67.706C68.648 67.5007 69.0867 67.398 69.6 67.398H70.076V68.448H69.418C68.8767 68.448 68.4427 68.616 68.116 68.952C67.7894 69.288 67.626 69.764 67.626 70.38V75H66.576ZM74.8205 75.168C74.1112 75.168 73.4672 75 72.8885 74.664C72.3098 74.3187 71.8478 73.852 71.5025 73.264C71.1665 72.6667 70.9985 71.99 70.9985 71.234C70.9985 70.4873 71.1665 69.82 71.5025 69.232C71.8385 68.644 72.2912 68.182 72.8605 67.846C73.4392 67.5007 74.0925 67.328 74.8205 67.328C75.5485 67.328 76.1972 67.496 76.7665 67.832C77.3452 68.168 77.7978 68.63 78.1245 69.218C78.4605 69.806 78.6285 70.478 78.6285 71.234C78.6285 71.9993 78.4558 72.6807 78.1105 73.278C77.7652 73.866 77.3032 74.328 76.7245 74.664C76.1552 75 75.5205 75.168 74.8205 75.168ZM74.8205 74.118C75.3245 74.118 75.7772 73.992 76.1785 73.74C76.5892 73.488 76.9112 73.1427 77.1445 72.704C77.3872 72.2653 77.5085 71.7753 77.5085 71.234C77.5085 70.6927 77.3872 70.2073 77.1445 69.778C76.9112 69.3487 76.5892 69.008 76.1785 68.756C75.7772 68.504 75.3245 68.378 74.8205 68.378C74.3165 68.378 73.8592 68.504 73.4485 68.756C73.0472 69.008 72.7252 69.3487 72.4825 69.778C72.2398 70.2073 72.1185 70.6927 72.1185 71.234C72.1185 71.7753 72.2398 72.2653 72.4825 72.704C72.7252 73.1427 73.0472 73.488 73.4485 73.74C73.8592 73.992 74.3165 74.118 74.8205 74.118ZM83.9103 75.168C83.173 75.168 82.5243 74.9953 81.9643 74.65C81.4043 74.3047 80.9657 73.838 80.6483 73.25C80.331 72.6527 80.1723 71.9807 80.1723 71.234C80.1723 70.4873 80.331 69.82 80.6483 69.232C80.9657 68.644 81.4043 68.182 81.9643 67.846C82.5243 67.5007 83.173 67.328 83.9103 67.328C84.377 67.328 84.8157 67.412 85.2263 67.58C85.637 67.748 86.001 67.9767 86.3183 68.266C86.6357 68.546 86.8737 68.8727 87.0323 69.246L86.0803 69.736C85.8937 69.3347 85.609 69.008 85.2263 68.756C84.8437 68.504 84.405 68.378 83.9103 68.378C83.4157 68.378 82.9677 68.504 82.5663 68.756C82.1743 68.9987 81.8617 69.3393 81.6283 69.778C81.4043 70.2073 81.2923 70.6973 81.2923 71.248C81.2923 71.7893 81.4043 72.2793 81.6283 72.718C81.8617 73.1473 82.1743 73.488 82.5663 73.74C82.9677 73.992 83.4157 74.118 83.9103 74.118C84.405 74.118 84.839 73.992 85.2123 73.74C85.595 73.488 85.8843 73.152 86.0803 72.732L87.0323 73.25C86.8737 73.614 86.6357 73.9407 86.3183 74.23C86.001 74.5193 85.637 74.748 85.2263 74.916C84.8157 75.084 84.377 75.168 83.9103 75.168ZM92.2909 75.168C91.5909 75.168 90.9562 75 90.3869 74.664C89.8269 74.3187 89.3835 73.8473 89.0569 73.25C88.7302 72.6527 88.5669 71.976 88.5669 71.22C88.5669 70.464 88.7255 69.7967 89.0429 69.218C89.3602 68.63 89.7895 68.168 90.3309 67.832C90.8815 67.496 91.4975 67.328 92.1789 67.328C92.7202 67.328 93.2009 67.4307 93.6209 67.636C94.0502 67.832 94.4142 68.1027 94.7129 68.448C95.0115 68.784 95.2402 69.1667 95.3989 69.596C95.5575 70.016 95.6369 70.45 95.6369 70.898C95.6369 70.9913 95.6322 71.0987 95.6229 71.22C95.6135 71.332 95.5995 71.4487 95.5809 71.57H89.2389V70.59H94.9789L94.4749 71.01C94.5589 70.4967 94.4982 70.0393 94.2929 69.638C94.0969 69.2273 93.8122 68.9053 93.4389 68.672C93.0655 68.4293 92.6455 68.308 92.1789 68.308C91.7122 68.308 91.2782 68.4293 90.8769 68.672C90.4849 68.9147 90.1769 69.2553 89.9529 69.694C89.7289 70.1233 89.6402 70.6367 89.6869 71.234C89.6402 71.8313 89.7335 72.354 89.9669 72.802C90.2095 73.2407 90.5362 73.5813 90.9469 73.824C91.3669 74.0667 91.8149 74.188 92.2909 74.188C92.8415 74.188 93.3035 74.0573 93.6769 73.796C94.0502 73.5347 94.3535 73.208 94.5869 72.816L95.4829 73.292C95.3335 73.628 95.1049 73.9407 94.7969 74.23C94.4889 74.51 94.1202 74.7387 93.6909 74.916C93.2709 75.084 92.8042 75.168 92.2909 75.168ZM97.4882 75V67.496H98.5382V68.728L98.3982 68.546C98.5755 68.1913 98.8415 67.9113 99.1962 67.706C99.5602 67.5007 99.9988 67.398 100.512 67.398H100.988V68.448H100.33C99.7888 68.448 99.3548 68.616 99.0282 68.952C98.7015 69.288 98.5382 69.764 98.5382 70.38V75H97.4882ZM102.219 75V67.496H103.269V75H102.219ZM102.219 66.11V64.57H103.269V66.11H102.219ZM108.834 75.168C108.134 75.168 107.499 75 106.93 74.664C106.37 74.3187 105.927 73.8473 105.6 73.25C105.273 72.6527 105.11 71.976 105.11 71.22C105.11 70.464 105.269 69.7967 105.586 69.218C105.903 68.63 106.333 68.168 106.874 67.832C107.425 67.496 108.041 67.328 108.722 67.328C109.263 67.328 109.744 67.4307 110.164 67.636C110.593 67.832 110.957 68.1027 111.256 68.448C111.555 68.784 111.783 69.1667 111.942 69.596C112.101 70.016 112.18 70.45 112.18 70.898C112.18 70.9913 112.175 71.0987 112.166 71.22C112.157 71.332 112.143 71.4487 112.124 71.57H105.782V70.59H111.522L111.018 71.01C111.102 70.4967 111.041 70.0393 110.836 69.638C110.64 69.2273 110.355 68.9053 109.982 68.672C109.609 68.4293 109.189 68.308 108.722 68.308C108.255 68.308 107.821 68.4293 107.42 68.672C107.028 68.9147 106.72 69.2553 106.496 69.694C106.272 70.1233 106.183 70.6367 106.23 71.234C106.183 71.8313 106.277 72.354 106.51 72.802C106.753 73.2407 107.079 73.5813 107.49 73.824C107.91 74.0667 108.358 74.188 108.834 74.188C109.385 74.188 109.847 74.0573 110.22 73.796C110.593 73.5347 110.897 73.208 111.13 72.816L112.026 73.292C111.877 73.628 111.648 73.9407 111.34 74.23C111.032 74.51 110.663 74.7387 110.234 74.916C109.814 75.084 109.347 75.168 108.834 75.168ZM116.635 75.168C115.916 75.168 115.286 74.986 114.745 74.622C114.204 74.258 113.812 73.7633 113.569 73.138L114.451 72.718C114.666 73.1753 114.964 73.5393 115.347 73.81C115.739 74.0807 116.168 74.216 116.635 74.216C117.083 74.216 117.461 74.1087 117.769 73.894C118.077 73.67 118.231 73.3807 118.231 73.026C118.231 72.7647 118.156 72.5593 118.007 72.41C117.858 72.2513 117.685 72.13 117.489 72.046C117.293 71.962 117.12 71.9013 116.971 71.864L115.893 71.556C115.202 71.36 114.703 71.0847 114.395 70.73C114.087 70.3753 113.933 69.9647 113.933 69.498C113.933 69.0593 114.045 68.6767 114.269 68.35C114.493 68.0233 114.796 67.7713 115.179 67.594C115.562 67.4167 115.986 67.328 116.453 67.328C117.088 67.328 117.662 67.496 118.175 67.832C118.698 68.1587 119.066 68.616 119.281 69.204L118.385 69.624C118.198 69.204 117.928 68.8773 117.573 68.644C117.228 68.4013 116.84 68.28 116.411 68.28C115.991 68.28 115.655 68.3873 115.403 68.602C115.151 68.8167 115.025 69.0873 115.025 69.414C115.025 69.666 115.09 69.8667 115.221 70.016C115.352 70.1653 115.501 70.2773 115.669 70.352C115.846 70.4267 116 70.4827 116.131 70.52L117.377 70.884C117.984 71.0613 118.455 71.3367 118.791 71.71C119.136 72.0833 119.309 72.522 119.309 73.026C119.309 73.4367 119.192 73.8053 118.959 74.132C118.735 74.4587 118.422 74.7153 118.021 74.902C117.62 75.0793 117.158 75.168 116.635 75.168Z" fill="black" fill-opacity="0.8"/>
<path d="M131.509 72.7584L136.502 67.7647L135.511 66.773L131.509 70.7751L129.49 68.7563L128.498 69.748L131.509 72.7584ZM132.5 76.5834C131.52 76.5834 130.6 76.3975 129.738 76.0256C128.876 75.6537 128.126 75.149 127.489 74.5115C126.851 73.874 126.347 73.1244 125.975 72.2626C125.603 71.4008 125.417 70.4799 125.417 69.5001C125.417 68.5202 125.603 67.5994 125.975 66.7376C126.347 65.8758 126.851 65.1261 127.489 64.4886C128.126 63.8511 128.876 63.3464 129.738 62.9746C130.6 62.6027 131.52 62.4167 132.5 62.4167C133.48 62.4167 134.401 62.6027 135.263 62.9746C136.125 63.3464 136.874 63.8511 137.512 64.4886C138.149 65.1261 138.654 65.8758 139.026 66.7376C139.398 67.5994 139.584 68.5202 139.584 69.5001C139.584 70.4799 139.398 71.4008 139.026 72.2626C138.654 73.1244 138.149 73.874 137.512 74.5115C136.874 75.149 136.125 75.6537 135.263 76.0256C134.401 76.3975 133.48 76.5834 132.5 76.5834ZM132.5 75.1667C134.082 75.1667 135.422 74.6178 136.52 73.5199C137.618 72.422 138.167 71.082 138.167 69.5001C138.167 67.9181 137.618 66.5782 136.52 65.4803C135.422 64.3824 134.082 63.8334 132.5 63.8334C130.918 63.8334 129.578 64.3824 128.481 65.4803C127.383 66.5782 126.834 67.9181 126.834 69.5001C126.834 71.082 127.383 72.422 128.481 73.5199C129.578 74.6178 130.918 75.1667 132.5 75.1667Z" fill="#21A0AA"/>
<rect x="412" y="166" width="137" height="42" rx="20" fill="white"/>
<rect x="412.5" y="166.5" width="136" height="41" rx="19.5" stroke="black" stroke-opacity="0.2"/>
<path d="M444.992 193.168C444.255 193.168 443.578 193.037 442.962 192.776C442.346 192.505 441.809 192.132 441.352 191.656C440.904 191.171 440.554 190.601 440.302 189.948C440.05 189.295 439.924 188.576 439.924 187.792C439.924 187.008 440.05 186.289 440.302 185.636C440.554 184.983 440.904 184.413 441.352 183.928C441.809 183.443 442.346 183.069 442.962 182.808C443.578 182.537 444.255 182.402 444.992 182.402C445.701 182.402 446.336 182.528 446.896 182.78C447.465 183.032 447.941 183.359 448.324 183.76C448.716 184.152 448.996 184.567 449.164 185.006L448.114 185.468C447.853 184.861 447.451 184.376 446.91 184.012C446.378 183.639 445.739 183.452 444.992 183.452C444.227 183.452 443.545 183.634 442.948 183.998C442.351 184.362 441.884 184.871 441.548 185.524C441.212 186.168 441.044 186.924 441.044 187.792C441.044 188.651 441.212 189.407 441.548 190.06C441.884 190.713 442.351 191.222 442.948 191.586C443.545 191.941 444.227 192.118 444.992 192.118C445.739 192.118 446.378 191.936 446.91 191.572C447.451 191.208 447.853 190.723 448.114 190.116L449.164 190.578C448.996 191.007 448.716 191.423 448.324 191.824C447.941 192.216 447.465 192.538 446.896 192.79C446.336 193.042 445.701 193.168 444.992 193.168ZM451.016 193V182.402H452.066V193H451.016ZM457.729 193.168C457.019 193.168 456.375 193 455.797 192.664C455.218 192.319 454.756 191.852 454.411 191.264C454.075 190.667 453.907 189.99 453.907 189.234C453.907 188.487 454.075 187.82 454.411 187.232C454.747 186.644 455.199 186.182 455.769 185.846C456.347 185.501 457.001 185.328 457.729 185.328C458.457 185.328 459.105 185.496 459.675 185.832C460.253 186.168 460.706 186.63 461.033 187.218C461.369 187.806 461.537 188.478 461.537 189.234C461.537 189.999 461.364 190.681 461.019 191.278C460.673 191.866 460.211 192.328 459.633 192.664C459.063 193 458.429 193.168 457.729 193.168ZM457.729 192.118C458.233 192.118 458.685 191.992 459.087 191.74C459.497 191.488 459.819 191.143 460.053 190.704C460.295 190.265 460.417 189.775 460.417 189.234C460.417 188.693 460.295 188.207 460.053 187.778C459.819 187.349 459.497 187.008 459.087 186.756C458.685 186.504 458.233 186.378 457.729 186.378C457.225 186.378 456.767 186.504 456.357 186.756C455.955 187.008 455.633 187.349 455.391 187.778C455.148 188.207 455.027 188.693 455.027 189.234C455.027 189.775 455.148 190.265 455.391 190.704C455.633 191.143 455.955 191.488 456.357 191.74C456.767 191.992 457.225 192.118 457.729 192.118ZM466.122 193.084C465.45 193.084 464.932 192.888 464.568 192.496C464.204 192.104 464.022 191.544 464.022 190.816V186.546H462.636V185.496H462.986C463.303 185.496 463.555 185.393 463.742 185.188C463.928 184.973 464.022 184.707 464.022 184.39V183.76H465.072V185.496H466.724V186.546H465.072V190.816C465.072 191.068 465.109 191.292 465.184 191.488C465.258 191.675 465.384 191.824 465.562 191.936C465.748 192.048 465.996 192.104 466.304 192.104C466.378 192.104 466.467 192.099 466.57 192.09C466.672 192.081 466.761 192.071 466.836 192.062V193C466.724 193.028 466.598 193.047 466.458 193.056C466.318 193.075 466.206 193.084 466.122 193.084ZM468.68 193V182.402H469.73V186.952L469.492 186.896C469.678 186.411 469.982 186.028 470.402 185.748C470.831 185.468 471.326 185.328 471.886 185.328C472.418 185.328 472.894 185.449 473.314 185.692C473.743 185.935 474.079 186.271 474.322 186.7C474.574 187.12 474.7 187.596 474.7 188.128V193H473.65V188.534C473.65 188.077 473.566 187.689 473.398 187.372C473.23 187.055 472.996 186.812 472.698 186.644C472.408 186.467 472.077 186.378 471.704 186.378C471.33 186.378 470.994 186.467 470.696 186.644C470.397 186.812 470.159 187.059 469.982 187.386C469.814 187.703 469.73 188.086 469.73 188.534V193H468.68ZM476.705 193V185.496H477.755V193H476.705ZM476.705 184.11V182.57H477.755V184.11H476.705ZM479.904 193V185.496H480.954V186.952L480.716 186.896C480.903 186.411 481.206 186.028 481.626 185.748C482.056 185.468 482.55 185.328 483.11 185.328C483.642 185.328 484.118 185.449 484.538 185.692C484.968 185.935 485.304 186.271 485.546 186.7C485.798 187.12 485.924 187.596 485.924 188.128V193H484.874V188.534C484.874 188.077 484.79 187.689 484.622 187.372C484.464 187.055 484.235 186.812 483.936 186.644C483.647 186.467 483.311 186.378 482.928 186.378C482.546 186.378 482.205 186.467 481.906 186.644C481.608 186.812 481.374 187.059 481.206 187.386C481.038 187.703 480.954 188.086 480.954 188.534V193H479.904ZM491.486 196.08C490.972 196.08 490.496 196.001 490.058 195.842C489.628 195.683 489.255 195.464 488.938 195.184C488.63 194.913 488.392 194.596 488.224 194.232L489.19 193.714C489.339 194.069 489.605 194.377 489.988 194.638C490.37 194.899 490.86 195.03 491.458 195.03C491.915 195.03 492.335 194.941 492.718 194.764C493.1 194.587 493.408 194.325 493.642 193.98C493.875 193.635 493.992 193.21 493.992 192.706V191.04L494.16 191.194C493.898 191.735 493.511 192.155 492.998 192.454C492.484 192.743 491.924 192.888 491.318 192.888C490.618 192.888 489.988 192.72 489.428 192.384C488.868 192.048 488.424 191.595 488.098 191.026C487.78 190.447 487.622 189.808 487.622 189.108C487.622 188.399 487.78 187.759 488.098 187.19C488.424 186.621 488.863 186.168 489.414 185.832C489.974 185.496 490.608 185.328 491.318 185.328C491.924 185.328 492.475 185.468 492.97 185.748C493.474 186.028 493.87 186.406 494.16 186.882L493.992 187.176V185.496H495.042V192.706C495.042 193.35 494.888 193.924 494.58 194.428C494.281 194.941 493.861 195.343 493.32 195.632C492.788 195.931 492.176 196.08 491.486 196.08ZM491.374 191.838C491.859 191.838 492.298 191.717 492.69 191.474C493.082 191.222 493.394 190.891 493.628 190.48C493.87 190.06 493.992 189.603 493.992 189.108C493.992 188.613 493.87 188.161 493.628 187.75C493.394 187.33 493.082 186.999 492.69 186.756C492.298 186.504 491.859 186.378 491.374 186.378C490.879 186.378 490.431 186.504 490.03 186.756C489.628 186.999 489.311 187.325 489.078 187.736C488.854 188.147 488.742 188.604 488.742 189.108C488.742 189.603 488.854 190.06 489.078 190.48C489.311 190.891 489.624 191.222 490.016 191.474C490.417 191.717 490.87 191.838 491.374 191.838ZM499.803 193.168C499.084 193.168 498.454 192.986 497.913 192.622C497.372 192.258 496.98 191.763 496.737 191.138L497.619 190.718C497.834 191.175 498.132 191.539 498.515 191.81C498.907 192.081 499.336 192.216 499.803 192.216C500.251 192.216 500.629 192.109 500.937 191.894C501.245 191.67 501.399 191.381 501.399 191.026C501.399 190.765 501.324 190.559 501.175 190.41C501.026 190.251 500.853 190.13 500.657 190.046C500.461 189.962 500.288 189.901 500.139 189.864L499.061 189.556C498.37 189.36 497.871 189.085 497.563 188.73C497.255 188.375 497.101 187.965 497.101 187.498C497.101 187.059 497.213 186.677 497.437 186.35C497.661 186.023 497.964 185.771 498.347 185.594C498.73 185.417 499.154 185.328 499.621 185.328C500.256 185.328 500.83 185.496 501.343 185.832C501.866 186.159 502.234 186.616 502.449 187.204L501.553 187.624C501.366 187.204 501.096 186.877 500.741 186.644C500.396 186.401 500.008 186.28 499.579 186.28C499.159 186.28 498.823 186.387 498.571 186.602C498.319 186.817 498.193 187.087 498.193 187.414C498.193 187.666 498.258 187.867 498.389 188.016C498.52 188.165 498.669 188.277 498.837 188.352C499.014 188.427 499.168 188.483 499.299 188.52L500.545 188.884C501.152 189.061 501.623 189.337 501.959 189.71C502.304 190.083 502.477 190.522 502.477 191.026C502.477 191.437 502.36 191.805 502.127 192.132C501.903 192.459 501.59 192.715 501.189 192.902C500.788 193.079 500.326 193.168 499.803 193.168Z" fill="black" fill-opacity="0.8"/>
<path d="M516.509 190.758L521.502 185.765L520.511 184.773L516.509 188.775L514.49 186.756L513.498 187.748L516.509 190.758ZM517.5 194.583C516.52 194.583 515.6 194.397 514.738 194.025C513.876 193.654 513.126 193.149 512.489 192.511C511.851 191.874 511.347 191.124 510.975 190.262C510.603 189.401 510.417 188.48 510.417 187.5C510.417 186.52 510.603 185.599 510.975 184.737C511.347 183.876 511.851 183.126 512.489 182.489C513.126 181.851 513.876 181.346 514.738 180.974C515.6 180.603 516.52 180.417 517.5 180.417C518.48 180.417 519.401 180.603 520.263 180.974C521.125 181.346 521.874 181.851 522.512 182.489C523.149 183.126 523.654 183.876 524.026 184.737C524.398 185.599 524.584 186.52 524.584 187.5C524.584 188.48 524.398 189.401 524.026 190.262C523.654 191.124 523.149 191.874 522.512 192.511C521.874 193.149 521.125 193.654 520.263 194.025C519.401 194.397 518.48 194.583 517.5 194.583ZM517.5 193.167C519.082 193.167 520.422 192.618 521.52 191.52C522.618 190.422 523.167 189.082 523.167 187.5C523.167 185.918 522.618 184.578 521.52 183.48C520.422 182.382 519.082 181.833 517.5 181.833C515.918 181.833 514.578 182.382 513.481 183.48C512.383 184.578 511.834 185.918 511.834 187.5C511.834 189.082 512.383 190.422 513.481 191.52C514.578 192.618 515.918 193.167 517.5 193.167Z" fill="#21A0AA"/>
<rect x="14" y="330" width="137" height="42" rx="20" fill="white"/>
<rect x="14.5" y="330.5" width="136" height="41" rx="19.5" stroke="black" stroke-opacity="0.2"/>
<path d="M51.992 357.168C51.2547 357.168 50.578 357.037 49.962 356.776C49.346 356.505 48.8093 356.132 48.352 355.656C47.904 355.171 47.554 354.601 47.302 353.948C47.05 353.295 46.924 352.576 46.924 351.792C46.924 351.008 47.05 350.289 47.302 349.636C47.554 348.983 47.904 348.413 48.352 347.928C48.8093 347.443 49.346 347.069 49.962 346.808C50.578 346.537 51.2547 346.402 51.992 346.402C52.7013 346.402 53.336 346.528 53.896 346.78C54.4653 347.032 54.9413 347.359 55.324 347.76C55.716 348.152 55.996 348.567 56.164 349.006L55.156 349.496C54.8947 348.861 54.4933 348.362 53.952 347.998C53.4107 347.634 52.7573 347.452 51.992 347.452C51.2267 347.452 50.5453 347.634 49.948 347.998C49.3507 348.362 48.884 348.871 48.548 349.524C48.212 350.168 48.044 350.924 48.044 351.792C48.044 352.651 48.212 353.407 48.548 354.06C48.884 354.713 49.3507 355.222 49.948 355.586C50.5453 355.941 51.2267 356.118 51.992 356.118C52.6733 356.118 53.2847 355.969 53.826 355.67C54.3767 355.371 54.8107 354.965 55.128 354.452C55.4453 353.929 55.604 353.332 55.604 352.66V352.086L56.108 352.59H51.992V351.61H56.724V352.478C56.724 353.159 56.6027 353.789 56.36 354.368C56.1173 354.937 55.7813 355.432 55.352 355.852C54.9227 356.272 54.4187 356.599 53.84 356.832C53.2707 357.056 52.6547 357.168 51.992 357.168ZM60.746 357.168C60.27 357.168 59.8454 357.079 59.472 356.902C59.0987 356.715 58.8047 356.463 58.59 356.146C58.3754 355.829 58.268 355.465 58.268 355.054C58.268 354.662 58.352 354.307 58.52 353.99C58.688 353.663 58.9494 353.388 59.304 353.164C59.6587 352.94 60.1114 352.781 60.662 352.688L63.602 352.198V353.15L60.914 353.598C60.3727 353.691 59.9807 353.864 59.738 354.116C59.5047 354.368 59.388 354.667 59.388 355.012C59.388 355.348 59.5187 355.633 59.78 355.866C60.0507 356.099 60.396 356.216 60.816 356.216C61.3294 356.216 61.7774 356.109 62.16 355.894C62.5427 355.67 62.8414 355.371 63.056 354.998C63.2707 354.625 63.378 354.209 63.378 353.752V351.848C63.378 351.4 63.2147 351.036 62.888 350.756C62.5614 350.476 62.1367 350.336 61.614 350.336C61.1567 350.336 60.7554 350.453 60.41 350.686C60.0647 350.91 59.808 351.204 59.64 351.568L58.688 351.05C58.828 350.733 59.0474 350.443 59.346 350.182C59.654 349.921 60.004 349.715 60.396 349.566C60.788 349.407 61.194 349.328 61.614 349.328C62.1647 349.328 62.65 349.435 63.07 349.65C63.4994 349.865 63.8307 350.163 64.064 350.546C64.3067 350.919 64.428 351.353 64.428 351.848V357H63.378V355.502L63.532 355.656C63.4014 355.936 63.196 356.193 62.916 356.426C62.6454 356.65 62.3234 356.832 61.95 356.972C61.586 357.103 61.1847 357.168 60.746 357.168ZM69.9758 357.168C69.2758 357.168 68.6458 357 68.0858 356.664C67.5258 356.319 67.0824 355.852 66.7558 355.264C66.4384 354.667 66.2798 353.995 66.2798 353.248C66.2798 352.492 66.4384 351.82 66.7558 351.232C67.0824 350.644 67.5211 350.182 68.0718 349.846C68.6318 349.501 69.2664 349.328 69.9758 349.328C70.6198 349.328 71.1938 349.468 71.6978 349.748C72.2018 350.028 72.5984 350.406 72.8878 350.882L72.7198 351.176V346.402H73.7698V357H72.7198V355.32L72.8878 355.474C72.6264 356.015 72.2344 356.435 71.7118 356.734C71.1984 357.023 70.6198 357.168 69.9758 357.168ZM70.0318 356.118C70.5358 356.118 70.9884 355.992 71.3898 355.74C71.8004 355.488 72.1224 355.147 72.3558 354.718C72.5984 354.279 72.7198 353.789 72.7198 353.248C72.7198 352.707 72.5984 352.221 72.3558 351.792C72.1224 351.353 71.8004 351.008 71.3898 350.756C70.9884 350.504 70.5358 350.378 70.0318 350.378C69.5371 350.378 69.0891 350.504 68.6878 350.756C68.2864 351.008 67.9691 351.349 67.7358 351.778C67.5118 352.207 67.3998 352.697 67.3998 353.248C67.3998 353.789 67.5118 354.279 67.7358 354.718C67.9691 355.147 68.2818 355.488 68.6738 355.74C69.0751 355.992 69.5278 356.118 70.0318 356.118ZM79.4817 360.08C78.9683 360.08 78.4923 360.001 78.0537 359.842C77.6243 359.683 77.251 359.464 76.9337 359.184C76.6257 358.913 76.3877 358.596 76.2197 358.232L77.1857 357.714C77.335 358.069 77.601 358.377 77.9837 358.638C78.3663 358.899 78.8563 359.03 79.4537 359.03C79.911 359.03 80.331 358.941 80.7137 358.764C81.0963 358.587 81.4043 358.325 81.6377 357.98C81.871 357.635 81.9877 357.21 81.9877 356.706V355.04L82.1557 355.194C81.8943 355.735 81.507 356.155 80.9937 356.454C80.4803 356.743 79.9203 356.888 79.3137 356.888C78.6137 356.888 77.9837 356.72 77.4237 356.384C76.8637 356.048 76.4203 355.595 76.0937 355.026C75.7763 354.447 75.6177 353.808 75.6177 353.108C75.6177 352.399 75.7763 351.759 76.0937 351.19C76.4203 350.621 76.859 350.168 77.4097 349.832C77.9697 349.496 78.6043 349.328 79.3137 349.328C79.9203 349.328 80.471 349.468 80.9657 349.748C81.4697 350.028 81.8663 350.406 82.1557 350.882L81.9877 351.176V349.496H83.0377V356.706C83.0377 357.35 82.8837 357.924 82.5757 358.428C82.277 358.941 81.857 359.343 81.3157 359.632C80.7837 359.931 80.1723 360.08 79.4817 360.08ZM79.3697 355.838C79.855 355.838 80.2937 355.717 80.6857 355.474C81.0777 355.222 81.3903 354.891 81.6237 354.48C81.8663 354.06 81.9877 353.603 81.9877 353.108C81.9877 352.613 81.8663 352.161 81.6237 351.75C81.3903 351.33 81.0777 350.999 80.6857 350.756C80.2937 350.504 79.855 350.378 79.3697 350.378C78.875 350.378 78.427 350.504 78.0257 350.756C77.6243 350.999 77.307 351.325 77.0737 351.736C76.8497 352.147 76.7377 352.604 76.7377 353.108C76.7377 353.603 76.8497 354.06 77.0737 354.48C77.307 354.891 77.6197 355.222 78.0117 355.474C78.413 355.717 78.8657 355.838 79.3697 355.838ZM88.6112 357.168C87.9112 357.168 87.2765 357 86.7072 356.664C86.1472 356.319 85.7039 355.847 85.3772 355.25C85.0505 354.653 84.8872 353.976 84.8872 353.22C84.8872 352.464 85.0459 351.797 85.3632 351.218C85.6805 350.63 86.1099 350.168 86.6512 349.832C87.2019 349.496 87.8179 349.328 88.4992 349.328C89.0405 349.328 89.5212 349.431 89.9412 349.636C90.3705 349.832 90.7345 350.103 91.0332 350.448C91.3319 350.784 91.5605 351.167 91.7192 351.596C91.8779 352.016 91.9572 352.45 91.9572 352.898C91.9572 352.991 91.9525 353.099 91.9432 353.22C91.9339 353.332 91.9199 353.449 91.9012 353.57H85.5592V352.59H91.2992L90.7952 353.01C90.8792 352.497 90.8185 352.039 90.6132 351.638C90.4172 351.227 90.1325 350.905 89.7592 350.672C89.3859 350.429 88.9659 350.308 88.4992 350.308C88.0325 350.308 87.5985 350.429 87.1972 350.672C86.8052 350.915 86.4972 351.255 86.2732 351.694C86.0492 352.123 85.9605 352.637 86.0072 353.234C85.9605 353.831 86.0539 354.354 86.2872 354.802C86.5299 355.241 86.8565 355.581 87.2672 355.824C87.6872 356.067 88.1352 356.188 88.6112 356.188C89.1619 356.188 89.6239 356.057 89.9972 355.796C90.3705 355.535 90.6739 355.208 90.9072 354.816L91.8032 355.292C91.6539 355.628 91.4252 355.941 91.1172 356.23C90.8092 356.51 90.4405 356.739 90.0112 356.916C89.5912 357.084 89.1245 357.168 88.6112 357.168ZM96.6785 357.084C96.0065 357.084 95.4885 356.888 95.1245 356.496C94.7605 356.104 94.5785 355.544 94.5785 354.816V350.546H93.1925V349.496H93.5425C93.8598 349.496 94.1118 349.393 94.2985 349.188C94.4851 348.973 94.5785 348.707 94.5785 348.39V347.76H95.6285V349.496H97.2805V350.546H95.6285V354.816C95.6285 355.068 95.6658 355.292 95.7405 355.488C95.8151 355.675 95.9411 355.824 96.1185 355.936C96.3051 356.048 96.5525 356.104 96.8605 356.104C96.9351 356.104 97.0238 356.099 97.1265 356.09C97.2291 356.081 97.3178 356.071 97.3925 356.062V357C97.2805 357.028 97.1545 357.047 97.0145 357.056C96.8745 357.075 96.7625 357.084 96.6785 357.084ZM101.84 357.168C101.122 357.168 100.492 356.986 99.9502 356.622C99.4089 356.258 99.0169 355.763 98.7742 355.138L99.6562 354.718C99.8709 355.175 100.17 355.539 100.552 355.81C100.944 356.081 101.374 356.216 101.84 356.216C102.288 356.216 102.666 356.109 102.974 355.894C103.282 355.67 103.436 355.381 103.436 355.026C103.436 354.765 103.362 354.559 103.212 354.41C103.063 354.251 102.89 354.13 102.694 354.046C102.498 353.962 102.326 353.901 102.176 353.864L101.098 353.556C100.408 353.36 99.9082 353.085 99.6002 352.73C99.2922 352.375 99.1382 351.965 99.1382 351.498C99.1382 351.059 99.2502 350.677 99.4742 350.35C99.6982 350.023 100.002 349.771 100.384 349.594C100.767 349.417 101.192 349.328 101.658 349.328C102.293 349.328 102.867 349.496 103.38 349.832C103.903 350.159 104.272 350.616 104.486 351.204L103.59 351.624C103.404 351.204 103.133 350.877 102.778 350.644C102.433 350.401 102.046 350.28 101.616 350.28C101.196 350.28 100.86 350.387 100.608 350.602C100.356 350.817 100.23 351.087 100.23 351.414C100.23 351.666 100.296 351.867 100.426 352.016C100.557 352.165 100.706 352.277 100.874 352.352C101.052 352.427 101.206 352.483 101.336 352.52L102.582 352.884C103.189 353.061 103.66 353.337 103.996 353.71C104.342 354.083 104.514 354.522 104.514 355.026C104.514 355.437 104.398 355.805 104.164 356.132C103.94 356.459 103.628 356.715 103.226 356.902C102.825 357.079 102.363 357.168 101.84 357.168Z" fill="black" fill-opacity="0.8"/>
<path d="M118.509 354.758L123.502 349.765L122.511 348.773L118.509 352.775L116.49 350.756L115.498 351.748L118.509 354.758ZM119.5 358.583C118.52 358.583 117.6 358.397 116.738 358.025C115.876 357.654 115.126 357.149 114.489 356.511C113.851 355.874 113.347 355.124 112.975 354.262C112.603 353.401 112.417 352.48 112.417 351.5C112.417 350.52 112.603 349.599 112.975 348.737C113.347 347.876 113.851 347.126 114.489 346.489C115.126 345.851 115.876 345.346 116.738 344.974C117.6 344.603 118.52 344.417 119.5 344.417C120.48 344.417 121.401 344.603 122.263 344.974C123.125 345.346 123.874 345.851 124.512 346.489C125.149 347.126 125.654 347.876 126.026 348.737C126.398 349.599 126.584 350.52 126.584 351.5C126.584 352.48 126.398 353.401 126.026 354.262C125.654 355.124 125.149 355.874 124.512 356.511C123.874 357.149 123.125 357.654 122.263 358.025C121.401 358.397 120.48 358.583 119.5 358.583ZM119.5 357.167C121.082 357.167 122.422 356.618 123.52 355.52C124.618 354.422 125.167 353.082 125.167 351.5C125.167 349.918 124.618 348.578 123.52 347.48C122.422 346.382 121.082 345.833 119.5 345.833C117.918 345.833 116.578 346.382 115.481 347.48C114.383 348.578 113.834 349.918 113.834 351.5C113.834 353.082 114.383 354.422 115.481 355.52C116.578 356.618 117.918 357.167 119.5 357.167Z" fill="#21A0AA"/>
<defs>
<clipPath id="clip0_887_1379">
<rect width="218.196" height="314.3" fill="white" transform="translate(172.133 82.4364)"/>
</clipPath>
<clipPath id="clip1_887_1379">
<rect width="123.204" height="96.6248" fill="white" transform="translate(221.281 184.09)"/>
</clipPath>
<clipPath id="clip2_887_1379">
<rect width="128.934" height="140.627" fill="white" transform="translate(99.1797 256.11)"/>
</clipPath>
<clipPath id="clip3_887_1379">
<rect width="260.733" height="69.146" fill="white" transform="translate(150.754 96.8044)"/>
</clipPath>
<clipPath id="clip4_887_1379">
<rect width="92.568" height="56.0352" fill="white" transform="translate(169.708 341.06)"/>
</clipPath>
<clipPath id="clip5_887_1379">
<rect width="83.0908" height="29.0952" fill="white" transform="translate(242.22 293.826)"/>
</clipPath>
<clipPath id="clip6_887_1379">
<rect width="157.586" height="75.432" fill="white" transform="matrix(-1 0 0 1 466.808 322.741)"/>
</clipPath>
</defs>
</svg>
