<svg width="196" height="99" viewBox="0 0 196 99" fill="none" xmlns="http://www.w3.org/2000/svg">
<path d="M68.2174 86H61.4908V52.3906H68.2174V69.1953L80.733 52.3906H88.3736L77.7564 66.5703L88.3736 86H80.733L73.3502 72.4062L68.2174 79.2734V86ZM97.2564 86H90.8111V50.9141H97.2564V86ZM126.413 73.2266C126.413 75.1016 126.077 76.8516 125.405 78.4766C124.733 80.0859 123.819 81.4844 122.663 82.6719C121.506 83.8438 120.147 84.7734 118.585 85.4609C117.038 86.1328 115.374 86.4688 113.592 86.4688C111.827 86.4688 110.163 86.1328 108.6 85.4609C107.053 84.7734 105.694 83.8438 104.522 82.6719C103.366 81.4844 102.452 80.0859 101.78 78.4766C101.108 76.8516 100.772 75.1016 100.772 73.2266C100.772 71.3203 101.108 69.5547 101.78 67.9297C102.452 66.3047 103.366 64.9062 104.522 63.7344C105.694 62.5469 107.053 61.6172 108.6 60.9453C110.163 60.2734 111.827 59.9375 113.592 59.9375C115.374 59.9375 117.038 60.2578 118.585 60.8984C120.147 61.5234 121.506 62.4219 122.663 63.5938C123.819 64.75 124.733 66.1484 125.405 67.7891C126.077 69.4141 126.413 71.2266 126.413 73.2266ZM119.967 73.2266C119.967 72.1953 119.796 71.2656 119.452 70.4375C119.124 69.5938 118.671 68.875 118.092 68.2812C117.514 67.6719 116.835 67.2109 116.053 66.8984C115.288 66.5703 114.467 66.4062 113.592 66.4062C112.717 66.4062 111.889 66.5703 111.108 66.8984C110.342 67.2109 109.671 67.6719 109.092 68.2812C108.53 68.875 108.085 69.5938 107.756 70.4375C107.428 71.2656 107.264 72.1953 107.264 73.2266C107.264 74.1953 107.428 75.0938 107.756 75.9219C108.085 76.75 108.53 77.4688 109.092 78.0781C109.671 78.6875 110.342 79.1719 111.108 79.5312C111.889 79.875 112.717 80.0469 113.592 80.0469C114.467 80.0469 115.288 79.8828 116.053 79.5547C116.835 79.2266 117.514 78.7656 118.092 78.1719C118.671 77.5781 119.124 76.8594 119.452 76.0156C119.796 75.1719 119.967 74.2422 119.967 73.2266ZM143.733 86H129.108V79.625H143.733C144.171 79.625 144.546 79.4688 144.858 79.1562C145.171 78.8438 145.327 78.4688 145.327 78.0312C145.327 77.5781 145.171 77.2812 144.858 77.1406C144.546 77 144.171 76.9297 143.733 76.9297H137.077C135.967 76.9297 134.928 76.7188 133.96 76.2969C132.991 75.875 132.147 75.3047 131.428 74.5859C130.71 73.8516 130.139 73 129.717 72.0312C129.311 71.0625 129.108 70.0234 129.108 68.9141C129.108 67.8047 129.311 66.7656 129.717 65.7969C130.139 64.8281 130.71 63.9844 131.428 63.2656C132.147 62.5469 132.991 61.9844 133.96 61.5781C134.928 61.1562 135.967 60.9453 137.077 60.9453H150.038V67.3203H137.077C136.639 67.3203 136.264 67.4766 135.952 67.7891C135.639 68.1016 135.483 68.4766 135.483 68.9141C135.483 69.3672 135.639 69.7578 135.952 70.0859C136.264 70.3984 136.639 70.5547 137.077 70.5547H143.733C144.827 70.5547 145.858 70.7422 146.827 71.1172C147.796 71.4766 148.639 71.9844 149.358 72.6406C150.077 73.2969 150.647 74.0859 151.069 75.0078C151.491 75.9297 151.702 76.9375 151.702 78.0312C151.702 79.1406 151.491 80.1797 151.069 81.1484C150.647 82.1016 150.077 82.9453 149.358 83.6797C148.639 84.3984 147.796 84.9688 146.827 85.3906C145.858 85.7969 144.827 86 143.733 86ZM179.428 86H177.881L175.397 82.5547C174.788 83.1016 174.139 83.6172 173.452 84.1016C172.78 84.5703 172.069 84.9844 171.319 85.3438C170.569 85.6875 169.796 85.9609 168.999 86.1641C168.217 86.3672 167.421 86.4688 166.608 86.4688C164.842 86.4688 163.178 86.1719 161.616 85.5781C160.069 84.9844 158.71 84.125 157.538 83C156.381 81.8594 155.467 80.4688 154.796 78.8281C154.124 77.1875 153.788 75.3203 153.788 73.2266C153.788 71.2734 154.124 69.4844 154.796 67.8594C155.467 66.2188 156.381 64.8125 157.538 63.6406C158.71 62.4688 160.069 61.5625 161.616 60.9219C163.178 60.2656 164.842 59.9375 166.608 59.9375C167.421 59.9375 168.225 60.0391 169.022 60.2422C169.819 60.4453 170.592 60.7266 171.342 61.0859C172.092 61.4453 172.803 61.8672 173.475 62.3516C174.163 62.8359 174.803 63.3594 175.397 63.9219L177.881 60.9453H179.428V86ZM172.983 73.2266C172.983 72.3516 172.811 71.5078 172.467 70.6953C172.139 69.8672 171.686 69.1406 171.108 68.5156C170.53 67.875 169.85 67.3672 169.069 66.9922C168.303 66.6016 167.483 66.4062 166.608 66.4062C165.733 66.4062 164.905 66.5547 164.124 66.8516C163.358 67.1484 162.686 67.5859 162.108 68.1641C161.546 68.7422 161.1 69.4609 160.772 70.3203C160.444 71.1641 160.28 72.1328 160.28 73.2266C160.28 74.3203 160.444 75.2969 160.772 76.1562C161.1 77 161.546 77.7109 162.108 78.2891C162.686 78.8672 163.358 79.3047 164.124 79.6016C164.905 79.8984 165.733 80.0469 166.608 80.0469C167.483 80.0469 168.303 79.8594 169.069 79.4844C169.85 79.0938 170.53 78.5859 171.108 77.9609C171.686 77.3203 172.139 76.5938 172.467 75.7812C172.811 74.9531 172.983 74.1016 172.983 73.2266Z" fill="#FF6A3C" fill-opacity="0.866667"/>
<path d="M53.4844 94H50.3906L45.4219 87.1094C44.2031 88.2031 42.9062 89.2344 41.5312 90.2031C40.1875 91.1406 38.7656 91.9688 37.2656 92.6875C35.7656 93.375 34.2188 93.9219 32.625 94.3281C31.0625 94.7344 29.4688 94.9375 27.8438 94.9375C24.3125 94.9375 20.9844 94.3438 17.8594 93.1562C14.7656 91.9688 12.0469 90.25 9.70312 88C7.39062 85.7188 5.5625 82.9375 4.21875 79.6562C2.875 76.375 2.20312 72.6406 2.20312 68.4531C2.20312 64.5469 2.875 60.9688 4.21875 57.7188C5.5625 54.4375 7.39062 51.625 9.70312 49.2812C12.0469 46.9375 14.7656 45.125 17.8594 43.8438C20.9844 42.5312 24.3125 41.875 27.8438 41.875C29.4688 41.875 31.0781 42.0781 32.6719 42.4844C34.2656 42.8906 35.8125 43.4531 37.3125 44.1719C38.8125 44.8906 40.2344 45.7344 41.5781 46.7031C42.9531 47.6719 44.2344 48.7188 45.4219 49.8438L50.3906 43.8906H53.4844V94ZM40.5938 68.4531C40.5938 66.7031 40.25 65.0156 39.5625 63.3906C38.9062 61.7344 38 60.2812 36.8438 59.0312C35.6875 57.75 34.3281 56.7344 32.7656 55.9844C31.2344 55.2031 29.5938 54.8125 27.8438 54.8125C26.0938 54.8125 24.4375 55.1094 22.875 55.7031C21.3438 56.2969 20 57.1719 18.8438 58.3281C17.7188 59.4844 16.8281 60.9219 16.1719 62.6406C15.5156 64.3281 15.1875 66.2656 15.1875 68.4531C15.1875 70.6406 15.5156 72.5938 16.1719 74.3125C16.8281 76 17.7188 77.4219 18.8438 78.5781C20 79.7344 21.3438 80.6094 22.875 81.2031C24.4375 81.7969 26.0938 82.0938 27.8438 82.0938C29.5938 82.0938 31.2344 81.7188 32.7656 80.9688C34.3281 80.1875 35.6875 79.1719 36.8438 77.9219C38 76.6406 38.9062 75.1875 39.5625 73.5625C40.25 71.9062 40.5938 70.2031 40.5938 68.4531Z" fill="#FF6A3C" fill-opacity="0.866667"/>
</svg>
