<svg width="50" height="50" viewBox="0 0 50 50" fill="none" xmlns="http://www.w3.org/2000/svg">
<path d="M35.1358 43C34.6983 43 34.342 42.645 34.342 42.2075V30.1625C34.342 25.8075 32.107 25.8075 31.2645 25.8075C28.917 25.8075 27.7283 27.2725 27.7283 30.1625V42.2088C27.7283 42.6463 27.3733 43.0013 26.9358 43.0013H20.1245C19.687 43.0013 19.332 42.6463 19.332 42.2088V19.2625C19.332 18.825 19.687 18.47 20.1245 18.47H26.937C27.3745 18.47 27.7295 18.825 27.7295 19.2625V20.1175L28.1395 19.7788C29.752 18.445 31.6758 17.7688 33.857 17.7688C36.5533 17.7688 38.8233 18.63 40.4208 20.2613C42.1083 21.9838 42.9995 24.5488 42.9995 27.6775V42.2088C42.9995 42.6463 42.6433 43.0013 42.2058 43.0013H35.1358V43ZM31.2658 24.22C33.0083 24.22 35.9308 24.9925 35.9308 30.1625V41.415H41.412V27.6775C41.412 22.3888 38.6583 19.3563 33.857 19.3563C29.5695 19.3563 27.712 22.5938 27.6345 22.7313C27.4945 22.985 27.2295 23.1425 26.9408 23.1425C26.8758 23.1425 26.8095 23.1325 26.742 23.1163C26.3895 23.0275 26.1433 22.7138 26.1433 22.3538V20.0575H20.9183V41.4163H26.1433V30.1625C26.1433 26.4413 28.0583 24.22 31.2658 24.22Z" fill="white"/>
<path d="M8.47539 43C8.03789 43 7.68164 42.645 7.68164 42.2075V19.2625C7.68164 18.825 8.03789 18.47 8.47539 18.47H15.5816C16.0191 18.47 16.3741 18.825 16.3741 19.2625V42.2075C16.3741 42.645 16.0191 43 15.5816 43H8.47539ZM9.26914 41.415H14.7879V20.0562H9.26914V41.415Z" fill="white"/>
<path d="M11.9963 17.0487C9.24125 17.0487 7 14.795 7 12.025C7 9.25375 9.24125 7 11.9963 7C14.7475 7 16.9875 9.255 16.9875 12.0263C16.9875 14.795 14.7475 17.0487 11.9963 17.0487ZM11.9963 8.5825C10.1163 8.5825 8.5875 10.1262 8.5875 12.025C8.5875 13.9225 10.1163 15.4638 11.9963 15.4638C13.875 15.4638 15.4025 13.9225 15.4025 12.025C15.4012 10.1275 13.875 8.5825 11.9963 8.5825Z" fill="white"/>
</svg>
