<svg width="52" height="54" viewBox="0 0 52 54" fill="none" xmlns="http://www.w3.org/2000/svg">
<path d="M51.4844 53H48.3906L43.4219 46.1094C42.2031 47.2031 40.9062 48.2344 39.5312 49.2031C38.1875 50.1406 36.7656 50.9688 35.2656 51.6875C33.7656 52.375 32.2188 52.9219 30.625 53.3281C29.0625 53.7344 27.4688 53.9375 25.8438 53.9375C22.3125 53.9375 18.9844 53.3438 15.8594 52.1562C12.7656 50.9688 10.0469 49.25 7.70312 47C5.39062 44.7188 3.5625 41.9375 2.21875 38.6562C0.875 35.375 0.203125 31.6406 0.203125 27.4531C0.203125 23.5469 0.875 19.9688 2.21875 16.7188C3.5625 13.4375 5.39062 10.625 7.70312 8.28125C10.0469 5.9375 12.7656 4.125 15.8594 2.84375C18.9844 1.53125 22.3125 0.875 25.8438 0.875C27.4688 0.875 29.0781 1.07812 30.6719 1.48438C32.2656 1.89062 33.8125 2.45312 35.3125 3.17188C36.8125 3.89062 38.2344 4.73438 39.5781 5.70312C40.9531 6.67188 42.2344 7.71875 43.4219 8.84375L48.3906 2.89062H51.4844V53ZM38.5938 27.4531C38.5938 25.7031 38.25 24.0156 37.5625 22.3906C36.9062 20.7344 36 19.2812 34.8438 18.0312C33.6875 16.75 32.3281 15.7344 30.7656 14.9844C29.2344 14.2031 27.5938 13.8125 25.8438 13.8125C24.0938 13.8125 22.4375 14.1094 20.875 14.7031C19.3438 15.2969 18 16.1719 16.8438 17.3281C15.7188 18.4844 14.8281 19.9219 14.1719 21.6406C13.5156 23.3281 13.1875 25.2656 13.1875 27.4531C13.1875 29.6406 13.5156 31.5938 14.1719 33.3125C14.8281 35 15.7188 36.4219 16.8438 37.5781C18 38.7344 19.3438 39.6094 20.875 40.2031C22.4375 40.7969 24.0938 41.0938 25.8438 41.0938C27.5938 41.0938 29.2344 40.7188 30.7656 39.9688C32.3281 39.1875 33.6875 38.1719 34.8438 36.9219C36 35.6406 36.9062 34.1875 37.5625 32.5625C38.25 30.9062 38.5938 29.2031 38.5938 27.4531Z" fill="#FF7D55"/>
</svg>
