<svg width="50" height="50" viewBox="0 0 50 50" fill="none" xmlns="http://www.w3.org/2000/svg">
<path d="M44.6576 6.79059C44.3347 6.51162 43.9417 6.32637 43.521 6.25492C43.1003 6.18347 42.6681 6.22855 42.2713 6.38528L6.22497 20.5464C5.75376 20.7315 5.35516 21.0642 5.08882 21.4948C4.82248 21.9253 4.70271 22.4305 4.74745 22.9348C4.79219 23.4391 4.99902 23.9153 5.337 24.2923C5.67498 24.6692 6.12593 24.9265 6.62237 25.0258L16.4064 26.9827V39.0595C16.4015 39.5241 16.537 39.9794 16.7952 40.3657C17.0533 40.7521 17.4221 41.0514 17.8532 41.2247C18.142 41.3456 18.4519 41.4083 18.765 41.4092C19.071 41.4082 19.3738 41.3465 19.6557 41.2276C19.9376 41.1087 20.1932 40.935 20.4074 40.7166L25.9926 35.1314L34.2335 42.3834C34.6582 42.7606 35.2062 42.9692 35.7742 42.9698C36.0211 42.9695 36.2664 42.9305 36.5013 42.8544C36.8886 42.7315 37.237 42.5093 37.5116 42.2098C37.7862 41.9103 37.9775 41.544 38.0663 41.1475L45.4128 9.09028C45.5087 8.67453 45.489 8.24047 45.3559 7.83511C45.2228 7.42974 44.9813 7.06853 44.6576 6.79059ZM6.30384 22.7967C6.28441 22.6279 6.32246 22.4575 6.41185 22.3131C6.50123 22.1686 6.63672 22.0585 6.79642 22.0006L39.8385 9.01966L17.0065 25.5094L6.92879 23.4938C6.76138 23.4649 6.60863 23.3803 6.49523 23.2538C6.38183 23.1273 6.3144 22.9662 6.30384 22.7967ZM19.3025 39.6119C19.1933 39.7211 19.0541 39.7955 18.9025 39.8257C18.751 39.8558 18.5939 39.8404 18.4512 39.7812C18.3084 39.7221 18.1864 39.622 18.1006 39.4935C18.0147 39.365 17.9689 39.214 17.9689 39.0595V28.0704L24.8173 34.0971L19.3025 39.6119ZM43.8898 8.74124L36.5433 40.7984C36.5131 40.9303 36.4491 41.0521 36.3576 41.1519C36.2662 41.2516 36.1504 41.3259 36.0216 41.3674C35.8928 41.409 35.7554 41.4163 35.6229 41.3888C35.4904 41.3613 35.3673 41.2998 35.2657 41.2104L18.4387 26.4025L43.7635 8.11248C43.8301 8.20122 43.8761 8.30375 43.8979 8.41255C43.9198 8.52134 43.917 8.63365 43.8898 8.74124Z" fill="white"/>
</svg>
