<svg width="50" height="50" viewBox="0 0 50 50" fill="none" xmlns="http://www.w3.org/2000/svg">
<path d="M47.973 1.58887H2.02703C0.907568 1.58887 0 2.49643 0 3.61589V36.9914C0 38.111 0.907568 39.0185 2.02703 39.0185H18.1978L16.4682 44.8997H14.3726C13.8404 44.8997 13.4089 45.331 13.4089 45.8632V47.4478C13.4089 47.9799 13.8404 48.4114 14.3726 48.4114H35.6276C36.1597 48.4114 36.5912 47.9801 36.5912 47.4478V45.8632C36.5912 45.331 36.16 44.8997 35.6276 44.8997H33.5316L31.802 39.0185H47.973C49.0924 39.0185 50 38.111 50 36.9914V3.61589C50 2.49643 49.0924 1.58887 47.973 1.58887ZM45.9459 31.5859H4.05405V5.64292H45.9459V31.5859Z" fill="#D6742B"/>
<path d="M22.5801 22.4505C22.693 22.7481 22.9847 22.9391 23.3025 22.9239C23.6206 22.9086 23.8924 22.6904 23.976 22.3833L24.3989 20.8329L28.0158 24.4495C28.3026 24.7366 28.7678 24.7366 29.0547 24.4495L29.964 23.5404C30.2509 23.2533 30.2509 22.7882 29.964 22.5012L26.3474 18.8845L27.8976 18.4617C28.2045 18.3781 28.4233 18.1062 28.4382 17.7882C28.4536 17.4701 28.2622 17.1786 27.9649 17.0656L20.8167 14.3544C20.5464 14.2518 20.241 14.3175 20.0366 14.5218C19.8321 14.7262 19.7666 15.0316 19.869 15.302L22.5801 22.4505Z" fill="#D6742B"/>
</svg>
