<svg width="50" height="50" viewBox="0 0 50 50" fill="none" xmlns="http://www.w3.org/2000/svg">
<g clip-path="url(#clip0_887_1376)">
<path d="M33.4181 7.74846C36.0001 7.74846 38.3312 8.80491 39.9734 10.501C42.0164 10.1057 43.9422 9.38538 45.6727 8.38772C45.0031 10.4206 43.5789 12.126 41.7266 13.2049C43.5391 12.9916 45.2743 12.526 46.8844 11.8299C45.6774 13.5752 44.1579 15.1119 42.4032 16.3401C42.4196 16.7127 42.429 17.0893 42.429 17.4642C42.429 28.9744 33.3954 42.2501 16.8767 42.2501C11.8064 42.2501 7.08371 40.8033 3.11188 38.333C3.82243 38.4156 4.53718 38.4568 5.25251 38.4564C9.45954 38.4564 13.3337 37.065 16.4079 34.7259C12.4759 34.6587 9.15715 32.1376 8.01886 28.679C8.57635 28.7835 9.14231 28.836 9.70949 28.8361C10.5259 28.8361 11.3212 28.7306 12.0728 28.5306C7.96496 27.7329 4.86886 24.2118 4.86886 19.9891V19.8774C6.08058 20.5305 7.46418 20.9227 8.9384 20.968C6.52746 19.4039 4.9423 16.7415 4.9423 13.7188C4.9423 12.1211 5.3861 10.6242 6.15876 9.34221C10.5869 14.6094 17.2041 18.0782 24.6689 18.443C24.515 17.807 24.4353 17.1352 24.4353 16.4594C24.4353 11.6477 28.4564 7.74846 33.4181 7.74846ZM46.8843 11.8315H46.8922H46.8843ZM33.4179 4.62366C27.282 4.62366 22.1986 9.10652 21.4157 14.8987C16.3954 13.8901 11.8298 11.2323 8.54928 7.33308C8.25603 6.98423 7.89001 6.70375 7.47689 6.51131C7.06378 6.31886 6.61357 6.21912 6.15783 6.21907C6.07599 6.21909 5.99417 6.22221 5.91257 6.22844C5.41723 6.26811 4.93845 6.42513 4.51581 6.6865C4.09318 6.94788 3.73884 7.30611 3.4821 7.73157C2.39262 9.53929 1.81699 11.61 1.8172 13.7206C1.8172 15.1292 2.07028 16.5011 2.55002 17.7839C2.03908 18.3519 1.74455 19.0948 1.74455 19.8792V19.9909C1.74455 23.0519 2.9547 25.8925 4.96408 28.0214C4.84845 28.5573 4.87424 29.1183 5.0508 29.6558C5.74382 31.7643 7.00553 33.5816 8.64147 34.9658C7.54299 35.2104 6.40944 35.3339 5.25236 35.3339C4.64064 35.3339 4.04533 35.3003 3.48205 35.2315C3.35705 35.2158 3.23361 35.2104 3.10939 35.2104C1.79689 35.2104 0.605485 36.0377 0.163298 37.2994C-0.321858 38.6823 0.216472 40.2151 1.46017 40.9893C6.07585 43.8612 11.407 45.3776 16.8758 45.3776C34.6508 45.3776 45.343 31.4627 45.5508 17.8705C47.0094 16.6638 48.2979 15.2652 49.3813 13.7127C49.7927 13.1725 50.015 12.512 50.0141 11.833C50.0141 10.7698 49.4821 9.82991 48.6719 9.26501C49.0227 8.06267 48.6227 6.76111 47.6461 5.9658C47.0758 5.50173 46.3766 5.2658 45.6735 5.2658C45.1254 5.26528 44.587 5.40946 44.1125 5.68376C43.0797 6.27913 41.975 6.75022 40.8117 7.08933C38.707 5.50574 36.0976 4.62371 33.4179 4.62366Z" fill="white"/>
</g>
<defs>
<clipPath id="clip0_887_1376">
<rect width="50" height="50" fill="white"/>
</clipPath>
</defs>
</svg>
