<svg width="100" height="76" viewBox="0 0 100 76" fill="none" xmlns="http://www.w3.org/2000/svg">
<path d="M98.7141 59.9234H95.5899V42.4507C95.5899 40.4063 94.9729 38.4005 93.8284 36.7035L85.9984 25.1063C84.0825 22.2777 80.8941 20.5804 77.4741 20.5804H65.3368C63.9097 20.5804 62.7654 21.7376 62.7654 23.152V59.9237H42.888C44.778 61.5564 46.0766 63.8322 46.4494 66.4038H67.4068C68.1523 61.2996 72.5497 57.3522 77.8597 57.3522C83.1698 57.3522 87.5541 61.2996 88.3 66.4038H98.7142C99.4214 66.4038 100 65.8252 100 65.118V61.2094C99.9998 60.5023 99.4214 59.9234 98.7141 59.9234ZM85.9084 39.0177H69.8881C69.1811 39.0177 68.6025 38.4518 68.6025 37.7319V28.8476C68.6025 28.1404 69.1811 27.5618 69.8881 27.5618H79.6469C80.0713 27.5618 80.4569 27.7675 80.7012 28.1018L86.9626 36.9991C87.5539 37.8478 86.9497 39.0177 85.9084 39.0177ZM77.8597 59.9234C73.4368 59.9234 69.8625 63.5105 69.8625 67.9334C69.8625 72.3435 73.4368 75.9306 77.8597 75.9306C82.2696 75.9306 85.8569 72.3435 85.8569 67.9334C85.8569 63.5108 82.2696 59.9234 77.8597 59.9234ZM77.8597 71.9324C75.6481 71.9324 73.861 70.1324 73.861 67.9339C73.861 65.7223 75.6481 63.935 77.8597 63.935C80.071 63.935 81.8584 65.7223 81.8584 67.9339C81.8584 70.1324 80.0711 71.9324 77.8597 71.9324ZM11.182 59.9234C10.4748 59.9234 9.89623 60.5023 9.89623 61.2092V65.118C9.89623 65.8252 10.4748 66.4038 11.182 66.4038H25.5563C25.9292 63.8322 27.2277 61.5564 29.105 59.9237H11.182V59.9234ZM35.9963 59.9234C31.5864 59.9234 27.9991 63.5105 27.9991 67.9334C27.9991 72.3435 31.5864 75.9306 35.9963 75.9306C40.4192 75.9306 43.9936 72.3435 43.9936 67.9334C43.9937 63.5108 40.4194 59.9234 35.9963 59.9234ZM35.9963 71.9324C33.7849 71.9324 31.9978 70.1324 31.9978 67.9339C31.9978 65.7223 33.7849 63.935 35.9963 63.935C38.2078 63.935 39.995 65.7223 39.995 67.9339C39.995 70.1324 38.2078 71.9324 35.9963 71.9324ZM55.231 12.6089H40.3293C41.0622 14.7818 41.448 17.1089 41.448 19.5133C41.448 31.6505 31.5736 41.5249 19.4364 41.5249C17.2248 41.5249 15.0778 41.1907 13.0591 40.5863V54.7937C13.0591 55.5009 13.6377 56.0795 14.3449 56.0795H57.8024C58.5097 56.0795 59.0881 55.5009 59.0881 54.7937V16.4661C59.088 14.3318 57.3651 12.6089 55.231 12.6089ZM19.4393 0.0698242C8.70325 0.0698242 0 8.77293 0 19.509C0 30.2451 8.70325 38.9484 19.4393 38.9484C30.1754 38.9484 38.8789 30.2451 38.8789 19.509C38.8789 8.77293 30.1754 0.0698242 19.4393 0.0698242ZM19.4393 34.5247C11.1466 34.5247 4.42369 27.802 4.42369 19.509C4.42369 11.2161 11.1466 4.49335 19.4393 4.49335C27.7323 4.49335 34.455 11.2162 34.455 19.509C34.455 27.802 27.7323 34.5247 19.4393 34.5247ZM25.1741 22.6803C25.0085 22.6803 24.8388 22.6589 24.6705 22.6138L18.4054 20.9251C17.5642 20.6978 16.9791 19.9345 16.9791 19.063V9.41999C16.9791 8.35528 17.8429 7.49139 18.9076 7.49139C19.9724 7.49139 20.8362 8.35528 20.8362 9.41999V17.5852L25.6751 18.8896C26.7036 19.167 27.3124 20.2257 27.0349 21.2538C26.8027 22.1139 26.0243 22.6803 25.1741 22.6803Z" fill="#D6742B"/>
</svg>
