<svg width="16" height="10" viewBox="0 0 16 10" fill="none" xmlns="http://www.w3.org/2000/svg">
<path d="M0.550828 9.50978C0.483556 9.44378 0.431557 9.36384 0.398481 9.27559C0.365407 9.18734 0.352059 9.09291 0.359375 8.99895C0.366692 8.90499 0.394496 8.81377 0.440834 8.7317C0.487172 8.64964 0.55092 8.57871 0.627597 8.52391L0.630308 8.52116L5.13915 5.34369L2.41049 2.66169C2.33476 2.58723 2.28165 2.49286 2.25731 2.38949C2.23297 2.28612 2.23839 2.17797 2.27295 2.07754C2.3075 1.97712 2.36978 1.88854 2.45258 1.82203C2.53537 1.75552 2.6353 1.71381 2.74081 1.70172L14.913 0.309773C15.0536 0.291854 15.1962 0.320475 15.319 0.391261C15.4418 0.462047 15.538 0.5711 15.5929 0.701745C15.6479 0.832389 15.6585 0.977434 15.6232 1.1147C15.5879 1.25196 15.5087 1.37389 15.3975 1.46184C15.3901 1.46936 15.381 1.47466 15.3723 1.48095L10.86 4.65696L13.5882 7.33847C13.6639 7.41292 13.717 7.50729 13.7413 7.61066C13.7657 7.71404 13.7603 7.82219 13.7257 7.92261C13.6912 8.02303 13.6289 8.11162 13.5461 8.17813C13.4633 8.24463 13.3633 8.28634 13.2578 8.29843L1.08488 9.68964C0.988068 9.70176 0.889768 9.69188 0.797301 9.66074C0.704835 9.6296 0.620586 9.578 0.550828 9.50978Z" fill="#FF7D55"/>
</svg>
