<svg width="50" height="50" viewBox="0 0 50 50" fill="none" xmlns="http://www.w3.org/2000/svg">
<g clip-path="url(#clip0_887_1062)">
<path d="M40.5208 8.43747C37.4822 5.38999 33.6086 3.31142 29.3893 2.46436C25.1699 1.61729 20.7942 2.03972 16.8148 3.67828C12.8355 5.31685 9.431 8.09803 7.03148 11.6705C4.63197 15.243 3.34506 19.4465 3.33333 23.75C3.28587 27.5612 4.29544 31.3111 6.25 34.5833L3.125 45.8333L14.6875 42.8125C17.8778 44.5623 21.4657 45.4593 25.1042 45.4166C29.3959 45.4341 33.5962 44.1765 37.1723 41.8035C40.7483 39.4304 43.5391 36.0488 45.1906 32.0875C46.842 28.1261 47.2799 23.7636 46.4485 19.5531C45.6171 15.3426 43.554 11.4738 40.5208 8.43747ZM25.1042 41.7708C21.5901 41.796 18.147 40.7812 15.2083 38.8541L8.33333 40.7291L10.2083 34.0625C8.1376 31.0191 7.01401 27.4309 6.97917 23.75C6.95854 20.1608 8.00399 16.6463 9.98301 13.652C11.962 10.6577 14.7855 8.31839 18.0955 6.93057C21.4056 5.54274 25.0532 5.16891 28.5759 5.85646C32.0986 6.54401 35.3379 8.26198 37.8832 10.7926C40.4284 13.3232 42.1651 16.5526 42.8729 20.0713C43.5807 23.59 43.2279 27.2397 41.8592 30.5577C40.4905 33.8756 38.1675 36.7126 35.1846 38.7088C32.2018 40.7051 28.6934 41.7707 25.1042 41.7708Z" fill="white"/>
<path d="M35 28.3333C33.7917 27.6584 32.5388 27.0667 31.25 26.5624C30.8333 26.3541 30.4166 26.2499 30.1041 26.7708C29.7916 27.2916 28.6458 28.5416 28.3333 28.9583C28.1923 29.1196 27.9946 29.2204 27.7812 29.2398C27.5679 29.2592 27.3552 29.1957 27.1875 29.0624C25.5912 28.4042 24.1134 27.4894 22.8125 26.3541C21.6178 25.2677 20.5988 24.0027 19.7916 22.6041C19.7339 22.523 19.6934 22.431 19.6726 22.3337C19.6518 22.2364 19.6511 22.1358 19.6707 22.0382C19.6902 21.9406 19.7295 21.8481 19.7861 21.7663C19.8427 21.6844 19.9155 21.6151 20 21.5624L20.8333 20.5208C21.0437 20.2678 21.2189 19.9874 21.3541 19.6874C21.4364 19.5449 21.4797 19.3832 21.4797 19.2187C21.4797 19.0541 21.4364 18.8924 21.3541 18.7499C21.1458 18.4374 20.1041 15.8333 19.6875 14.6874C19.2708 13.5416 18.75 13.7499 18.4375 13.7499H17.3958C17.1121 13.7457 16.8315 13.8098 16.5777 13.9367C16.3239 14.0636 16.1044 14.2496 15.9375 14.4791C15.316 15.0428 14.826 15.7362 14.502 16.5102C14.178 17.2842 14.0279 18.1199 14.0625 18.9583C14.2441 21.0026 15.0027 22.9533 16.25 24.5833C16.5625 24.8958 20.1041 30.4166 25.5208 32.7083C26.5227 33.191 27.5693 33.5748 28.6458 33.8541C29.7536 34.2234 30.939 34.2952 32.0833 34.0624C33.125 33.9583 35.3125 32.8124 35.7291 31.5624C36.1458 30.3124 36.25 29.1666 36.0416 28.9583C35.7604 28.6558 35.3992 28.4391 35 28.3333Z" fill="white"/>
</g>
<defs>
<clipPath id="clip0_887_1062">
<rect width="50" height="50" fill="white"/>
</clipPath>
</defs>
</svg>
